<?xml version="1.0" encoding="UTF-8"?>
<svg width="138px" height="116px" viewBox="0 0 138 116" version="1.1" xmlns="http://www.w3.org/2000/svg" xmlns:xlink="http://www.w3.org/1999/xlink">
    <!-- Generator: Sketch 48.2 (47327) - http://www.bohemiancoding.com/sketch -->
    <title>Artboard 2</title>
    <desc>Created with Sketch.</desc>
    <defs></defs>
    <g id="ILN---Website" stroke="none" stroke-width="1" fill="none" fill-rule="evenodd">
        <g id="Artboard-2">
            <circle id="Oval-2-Copy-6" fill="#E2E0DD" style="mix-blend-mode: multiply;" cx="58.5" cy="50.5" r="49.5"></circle>
            <g id="FLEET-Copy-2" transform="translate(1.000000, 1.000000)" fill-rule="nonzero">
                <g id="Group" fill="#EF463D">
                    <path d="M51.4384106,103.559322 C41.0450331,103.559322 31.0039735,100.386441 22.284106,94.3932203 C10.9218543,86.5491525 3.34701987,74.8271186 0.880794702,61.2542373 C-0.264238411,54.9966102 -0.264238411,48.7389831 0.880794702,42.5694915 C1.05695364,41.8644068 1.67350993,41.3355932 2.3781457,41.5118644 C3.08278146,41.6881356 3.61125828,42.3050847 3.43509934,43.0101695 C2.3781457,48.8271186 2.3781457,54.820339 3.43509934,60.7254237 C5.81324503,73.5932203 13.0357616,84.7864407 23.781457,92.1898305 C34.5271523,99.5932203 47.5629139,102.413559 60.3344371,100.033898 C65.2668874,99.1525424 69.9350993,97.4779661 74.3390728,95.1864407 C74.9556291,94.8338983 75.7483444,95.0983051 76.1006623,95.7152542 C76.4529801,96.3322034 76.1887417,97.1254237 75.5721854,97.4779661 C70.992053,99.9457627 65.9715232,101.620339 60.7748344,102.589831 C57.692053,103.20678 54.6092715,103.559322 51.4384106,103.559322 Z" id="Shape"></path>
                    <path d="M81.7377483,93.4237288 C81.297351,93.4237288 80.9450331,93.2474576 80.6807947,92.8949153 C80.2403974,92.2779661 80.3284768,91.4847458 80.9450331,91.0440678 C95.8304636,79.8508475 103.05298,61.4305085 99.7059603,43.0983051 C95.918543,22.2101695 79.2715232,6.25762712 58.2205298,3.43728814 C57.515894,3.34915254 56.9874172,2.6440678 57.0754967,1.93898305 C57.1635762,1.23389831 57.8682119,0.705084746 58.5728477,0.793220339 C80.6807947,3.78983051 98.2086093,20.6237288 102.260265,42.6576271 C105.783444,62.0474576 98.2086093,81.3491525 82.5304636,93.2474576 C82.2662252,93.4237288 82.0019868,93.4237288 81.7377483,93.4237288 Z" id="Shape"></path>
                    <path d="M42.5423841,3.78983051 C41.9258278,3.78983051 41.397351,3.34915254 41.2211921,2.73220339 C41.1331126,2.02711864 41.5735099,1.3220339 42.2781457,1.23389831 C45.1847682,0.705084746 48.1794702,0.440677966 51.0860927,0.352542373 C51.0860927,0.352542373 51.0860927,0.352542373 51.0860927,0.352542373 C51.7907285,0.352542373 52.4072848,0.969491525 52.4072848,1.67457627 C52.4072848,2.37966102 51.7907285,2.99661017 51.0860927,2.99661017 C48.2675497,2.99661017 45.4490066,3.26101695 42.718543,3.78983051 C42.718543,3.78983051 42.6304636,3.78983051 42.5423841,3.78983051 Z" id="Shape"></path>
                </g>
                <g id="Group" transform="translate(16.735099, 30.847458)">
                    <g transform="translate(0.000000, 4.406780)" id="Shape">
                        <polygon fill-opacity="0" fill="#FFFFFF" points="36.905298 36.5762712 1.93774834 36.5762712 1.93774834 17.979661 16.3827815 1.58644068 36.905298 1.58644068"></polygon>
                        <path d="M36.905298,37.8983051 L1.93774834,37.8983051 C1.23311258,37.8983051 0.616556291,37.2813559 0.616556291,36.5762712 L0.616556291,17.979661 C0.616556291,17.6271186 0.704635762,17.3627119 0.968874172,17.0983051 L15.4139073,0.616949153 C15.6781457,0.352542373 16.0304636,0.176271186 16.3827815,0.176271186 L36.905298,0.176271186 C37.6099338,0.176271186 38.2264901,0.793220339 38.2264901,1.49830508 L38.2264901,36.4881356 C38.2264901,37.2813559 37.6099338,37.8983051 36.905298,37.8983051 Z M3.2589404,35.2542373 L35.584106,35.2542373 L35.584106,2.90847458 L16.9112583,2.90847458 L3.2589404,18.5084746 L3.2589404,35.2542373 Z" fill="#EF463D"></path>
                    </g>
                    <g transform="translate(9.688742, 11.457627)" id="Shape">
                        <polygon fill-opacity="0" fill="#FFFFFF" points="16.9112583 13.1322034 1.67350993 13.1322034 1.67350993 11.7220339 10.0410596 1.93898305 16.9112583 1.93898305"></polygon>
                        <path d="M16.9112583,14.4542373 L1.67350993,14.4542373 C0.968874172,14.4542373 0.352317881,13.8372881 0.352317881,13.1322034 L0.352317881,11.7220339 C0.352317881,11.3694915 0.440397351,11.1050847 0.704635762,10.840678 L9.1602649,1.05762712 C9.42450331,0.793220339 9.77682119,0.616949153 10.1291391,0.616949153 L16.9112583,0.616949153 C17.615894,0.616949153 18.2324503,1.23389831 18.2324503,1.93898305 L18.2324503,13.1322034 C18.2324503,13.9254237 17.615894,14.4542373 16.9112583,14.4542373 Z M3.2589404,11.8101695 L15.5019868,11.8101695 L15.5019868,3.26101695 L10.6576159,3.26101695 L3.2589404,11.8101695 Z" fill="#EF463D"></path>
                    </g>
                    <g transform="translate(9.688742, 30.847458)">
                        <ellipse id="Oval" fill="#DAD7D4" cx="9.68874172" cy="10.1355932" rx="8.01523179" ry="8.02033898"></ellipse>
                        <path d="M9.68874172,19.4779661 C4.58013245,19.4779661 0.352317881,15.3355932 0.352317881,10.1355932 C0.352317881,4.93559322 4.49205298,0.793220339 9.68874172,0.793220339 C14.8854305,0.793220339 19.0251656,4.93559322 19.0251656,10.1355932 C19.0251656,15.3355932 14.8854305,19.4779661 9.68874172,19.4779661 Z M9.68874172,3.43728814 C5.98940397,3.43728814 2.99470199,6.43389831 2.99470199,10.1355932 C2.99470199,13.8372881 5.98940397,16.8338983 9.68874172,16.8338983 C13.3880795,16.8338983 16.3827815,13.8372881 16.3827815,10.1355932 C16.3827815,6.43389831 13.3880795,3.43728814 9.68874172,3.43728814 Z" id="Shape" fill="#EF463D"></path>
                    </g>
                    <g transform="translate(35.231788, 0.000000)" id="Shape">
                        <path d="M61.2152318,1.93898305 C61.2152318,2.02711864 61.2152318,2.20338983 61.2152318,2.29152542 C61.2152318,12.6033898 52.8476821,20.9762712 42.5423841,20.9762712 C32.2370861,20.9762712 23.8695364,12.6033898 23.8695364,2.29152542 C23.8695364,2.20338983 23.8695364,2.02711864 23.8695364,1.93898305 L1.58543046,1.93898305 L1.58543046,40.9830508 L79.2715232,40.9830508 L79.2715232,1.93898305 L61.2152318,1.93898305 Z" fill="#000000"></path>
                        <path d="M79.3596026,42.3050847 L1.67350993,42.3050847 C0.968874172,42.3050847 0.352317881,41.6881356 0.352317881,40.9830508 L0.352317881,1.93898305 C0.352317881,1.23389831 0.968874172,0.616949153 1.67350993,0.616949153 L23.9576159,0.616949153 C24.3099338,0.616949153 24.6622517,0.793220339 24.9264901,1.05762712 C25.1907285,1.3220339 25.2788079,1.67457627 25.2788079,2.02711864 C25.2788079,2.11525424 25.2788079,2.20338983 25.2788079,2.29152542 L25.2788079,2.37966102 C25.2788079,11.8983051 33.0298013,19.7423729 42.6304636,19.7423729 C52.1430464,19.7423729 59.9821192,11.9864407 59.9821192,2.37966102 L59.9821192,2.29152542 C59.9821192,2.20338983 59.9821192,2.11525424 59.9821192,2.02711864 C59.9821192,1.67457627 60.0701987,1.3220339 60.3344371,1.05762712 C60.5986755,0.793220339 60.9509934,0.616949153 61.3033113,0.616949153 L79.4476821,0.616949153 C80.1523179,0.616949153 80.7688742,1.23389831 80.7688742,1.93898305 L80.7688742,40.9830508 C80.6807947,41.6881356 80.1523179,42.3050847 79.3596026,42.3050847 Z M2.99470199,39.6610169 L78.0384106,39.6610169 L78.0384106,3.26101695 L62.5364238,3.26101695 C62.007947,13.8372881 53.2880795,22.2983051 42.6304636,22.2983051 C31.9728477,22.2983051 23.1649007,13.8372881 22.7245033,3.26101695 L3.08278146,3.26101695 L3.08278146,39.6610169 L2.99470199,39.6610169 Z" fill="#EF463D"></path>
                    </g>
                    <g transform="translate(86.317881, 30.847458)">
                        <ellipse id="Oval" fill="#F6F5F5" cx="9.60066225" cy="10.1355932" rx="8.01523179" ry="8.02033898"></ellipse>
                        <path d="M9.60066225,19.4779661 C4.49205298,19.4779661 0.264238411,15.3355932 0.264238411,10.1355932 C0.264238411,4.93559322 4.40397351,0.793220339 9.60066225,0.793220339 C14.797351,0.793220339 18.9370861,4.93559322 18.9370861,10.1355932 C18.9370861,15.3355932 14.7092715,19.4779661 9.60066225,19.4779661 Z M9.60066225,3.43728814 C5.9013245,3.43728814 2.90662252,6.43389831 2.90662252,10.1355932 C2.90662252,13.8372881 5.9013245,16.8338983 9.60066225,16.8338983 C13.3,16.8338983 16.294702,13.8372881 16.294702,10.1355932 C16.294702,6.43389831 13.3,3.43728814 9.60066225,3.43728814 Z" id="Shape" fill="#EF463D"></path>
                    </g>
                </g>
                <g id="Group" transform="translate(73.986755, 12.338983)">
                    <g>
                        <ellipse id="Oval" fill="#F6F5F5" cx="20.610596" cy="20.8881356" rx="18.6728477" ry="18.6847458"></ellipse>
                        <path d="M20.610596,40.8067797 C9.60066225,40.8067797 0.616556291,31.8169492 0.616556291,20.8 C0.616556291,9.78305085 9.60066225,0.793220339 20.610596,0.793220339 C31.6205298,0.793220339 40.6046358,9.78305085 40.6046358,20.8 C40.6046358,31.8169492 31.6205298,40.8067797 20.610596,40.8067797 Z M20.610596,3.52542373 C11.0980132,3.52542373 3.2589404,11.2813559 3.2589404,20.8881356 C3.2589404,30.4949153 11.0099338,38.2508475 20.610596,38.2508475 C30.1231788,38.2508475 37.9622517,30.4949153 37.9622517,20.8881356 C37.9622517,11.2813559 30.1231788,3.52542373 20.610596,3.52542373 Z" id="Shape" fill="#EF463D"></path>
                    </g>
                    <path d="M19.4655629,31.4644068 C19.289404,31.4644068 19.0251656,31.3762712 18.8490066,31.2881356 C18.2324503,30.9355932 17.9682119,30.1423729 18.3205298,29.5254237 L22.1960265,22.0338983 L17.2635762,21.7694915 C16.8231788,21.7694915 16.4708609,21.5050847 16.2066225,21.1525424 C15.9423841,20.8 15.9423841,20.359322 16.118543,19.9186441 L19.8178808,10.5762712 C20.0821192,9.87118644 20.8748344,9.60677966 21.5794702,9.87118644 C22.284106,10.1355932 22.5483444,10.9288136 22.284106,11.6338983 L19.289404,19.2135593 L24.3980132,19.4779661 C24.8384106,19.4779661 25.2788079,19.7423729 25.4549669,20.1830508 C25.7192053,20.5355932 25.7192053,21.0644068 25.4549669,21.4169492 L20.610596,30.759322 C20.4344371,31.2 19.9940397,31.4644068 19.4655629,31.4644068 Z" id="Shape" fill="#EF463D"></path>
                </g>
            </g>
        </g>
    </g>
</svg>