<?xml version="1.0" encoding="UTF-8"?>
<svg width="138px" height="116px" viewBox="0 0 138 116" version="1.1" xmlns="http://www.w3.org/2000/svg" xmlns:xlink="http://www.w3.org/1999/xlink">
    <!-- Generator: Sketch 48.2 (47327) - http://www.bohemiancoding.com/sketch -->
    <title>Artboard 2 Copy</title>
    <desc>Created with Sketch.</desc>
    <defs></defs>
    <g id="ILN---Website" stroke="none" stroke-width="1" fill="none" fill-rule="evenodd">
        <g id="Artboard-2-Copy">
            <circle id="Oval-2-Copy-7" fill="#D9D7D3" style="mix-blend-mode: multiply;" cx="59.5" cy="50.5" r="49.5"></circle>
            <g id="SHARE-INFO-Copy-2" transform="translate(0.000000, 1.000000)" fill-rule="nonzero">
                <path d="M52.2619835,100.898347 C47.2214876,100.898347 42.1809917,100.190909 37.3173554,98.6876033 C24.0528926,94.7082645 13.1760331,85.7768595 6.6322314,73.5735537 C0.0884297521,61.3702479 -1.32644628,47.3983471 2.74132231,34.1338843 C4.59834711,28.0322314 7.42809917,22.461157 11.3190083,17.5090909 C11.761157,16.8900826 12.5570248,16.8016529 13.1760331,17.2438017 C13.7950413,17.6859504 13.8834711,18.4818182 13.4413223,19.1008264 C9.81570248,23.7876033 7.07438017,29.1818182 5.30578512,34.9297521 C1.50330579,47.4867769 2.82975207,60.7512397 9.01983471,72.3355372 C15.2099174,83.9198347 25.5561983,92.3206612 38.1132231,96.1231405 C42.8884298,97.5380165 47.8404959,98.2454545 52.8809917,98.2454545 C52.8809917,98.2454545 52.8809917,98.2454545 52.8809917,98.2454545 C53.5884298,98.2454545 54.207438,98.8644628 54.207438,99.5719008 C54.207438,100.279339 53.5884298,100.898347 52.8809917,100.898347 C52.7041322,100.898347 52.438843,100.898347 52.2619835,100.898347 Z" id="Shape" fill="#EF463D"></path>
                <path d="M24.6719008,10.346281 C24.2297521,10.346281 23.7876033,10.0809917 23.522314,9.72727273 C23.168595,9.10826446 23.3454545,8.31239669 23.9644628,7.87024793 C31.9231405,2.91818182 41.1198347,0.353719008 50.4933884,0.353719008 C55.8876033,0.353719008 61.1933884,1.14958678 66.2338843,2.82975207 C66.9413223,3.09504132 67.2950413,3.80247934 67.1181818,4.50991736 C66.8528926,5.21735537 66.1454545,5.57107438 65.4380165,5.39421488 C60.6628099,3.80247934 55.622314,3.00661157 50.4933884,3.00661157 C41.5619835,3.00661157 32.8958678,5.48264463 25.3793388,10.0809917 C25.2024793,10.2578512 24.9371901,10.346281 24.6719008,10.346281 Z" id="Shape" fill="#EF463D"></path>
                <path d="M77.9950413,93.2933884 C77.5528926,93.2933884 77.1107438,93.1165289 76.9338843,92.6743802 C76.4917355,92.0553719 76.668595,91.2595041 77.2876033,90.8173554 C82.5933884,87.2801653 87.014876,82.8586777 90.5520661,77.5528926 C90.9942149,76.9338843 91.7900826,76.7570248 92.4090909,77.1991736 C93.0280992,77.6413223 93.2049587,78.4371901 92.7628099,79.0561983 C89.0487603,84.6272727 84.3619835,89.3140496 78.7909091,93.0280992 C78.4371901,93.2933884 78.1719008,93.2933884 77.9950413,93.2933884 Z" id="Shape" fill="#EF463D"></path>
                <g id="Group" transform="translate(29.181818, 24.760331)" fill="#231F20">
                    <path d="M39.1743802,1.23801653 L5.04049587,1.23801653 C2.91818182,1.23801653 1.14958678,3.00661157 1.14958678,5.12892562 L1.14958678,76.4033058 C1.14958678,78.5256198 2.91818182,80.2942149 5.04049587,80.2942149 L39.1743802,80.2942149 C41.2966942,80.2942149 43.0652893,78.5256198 43.0652893,76.4033058 L43.0652893,61.4586777 L43.0652893,35.8140496 L43.0652893,5.12892562 C43.153719,3.00661157 41.385124,1.23801653 39.1743802,1.23801653 Z M22.107438,78.7024793 C20.0735537,78.7024793 18.4818182,77.1107438 18.4818182,75.0768595 C18.4818182,73.0429752 20.0735537,71.4512397 22.107438,71.4512397 C24.1413223,71.4512397 25.7330579,73.0429752 25.7330579,75.0768595 C25.7330579,77.1107438 24.1413223,78.7024793 22.107438,78.7024793 Z M38.2016529,44.568595 L38.2016529,61.6355372 L38.2016529,69.2404959 L6.01322314,69.2404959 L6.01322314,7.33966942 L38.2016529,7.33966942 L38.2016529,44.568595 Z" id="Shape"></path>
                    <path d="M39.1743802,81.2669421 L5.04049587,81.2669421 C2.38760331,81.2669421 0.265289256,79.1446281 0.265289256,76.4917355 L0.265289256,5.21735537 C0.265289256,2.56446281 2.38760331,0.44214876 5.04049587,0.44214876 L39.1743802,0.44214876 C41.8272727,0.44214876 43.9495868,2.56446281 43.9495868,5.21735537 L43.9495868,76.4917355 C44.0380165,79.1446281 41.8272727,81.2669421 39.1743802,81.2669421 Z M22.9033058,79.4983471 L39.1743802,79.4983471 C40.8545455,79.4983471 42.1809917,78.1719008 42.1809917,76.4917355 L42.1809917,5.21735537 C42.1809917,3.53719008 40.8545455,2.2107438 39.1743802,2.2107438 L5.04049587,2.2107438 C3.36033058,2.2107438 2.0338843,3.53719008 2.0338843,5.21735537 L2.0338843,76.4917355 C2.0338843,78.1719008 3.36033058,79.4983471 5.04049587,79.4983471 L21.3115702,79.4983471 C19.1892562,79.1446281 17.5975207,77.2876033 17.5975207,75.0768595 C17.5975207,72.6008264 19.631405,70.5669421 22.107438,70.5669421 C24.5834711,70.5669421 26.6173554,72.6008264 26.6173554,75.0768595 C26.6173554,77.2876033 25.0256198,79.1446281 22.9033058,79.4983471 Z M22.107438,72.3355372 C20.6041322,72.3355372 19.3661157,73.5735537 19.3661157,75.0768595 C19.3661157,76.5801653 20.6041322,77.8181818 22.107438,77.8181818 C23.6107438,77.8181818 24.8487603,76.5801653 24.8487603,75.0768595 C24.8487603,73.5735537 23.6107438,72.3355372 22.107438,72.3355372 Z M38.2016529,70.0363636 L6.01322314,70.0363636 C5.48264463,70.0363636 5.12892562,69.6826446 5.12892562,69.1520661 L5.12892562,7.25123967 C5.12892562,6.72066116 5.48264463,6.36694215 6.01322314,6.36694215 L38.2016529,6.36694215 C38.7322314,6.36694215 39.0859504,6.72066116 39.0859504,7.25123967 L39.0859504,69.1520661 C39.0859504,69.6826446 38.6438017,70.0363636 38.2016529,70.0363636 Z M6.89752066,68.2677686 L37.3173554,68.2677686 L37.3173554,8.13553719 L6.89752066,8.13553719 L6.89752066,68.2677686 Z" id="Shape"></path>
                </g>
                <g id="Group" transform="translate(38.909091, 16.801653)">
                    <g transform="translate(6.190083, 45.099174)" fill="#EF463C">
                        <rect id="Rectangle-path" x="2.2107438" y="1.50330579" width="6.72066116" height="6.72066116"></rect>
                        <path d="M8.84297521,9.46198347 L2.12231405,9.46198347 C1.41487603,9.46198347 0.795867769,8.84297521 0.795867769,8.13553719 L0.795867769,1.50330579 C0.795867769,0.795867769 1.41487603,0.176859504 2.12231405,0.176859504 L8.84297521,0.176859504 C9.55041322,0.176859504 10.1694215,0.795867769 10.1694215,1.50330579 L10.1694215,8.13553719 C10.1694215,8.93140496 9.55041322,9.46198347 8.84297521,9.46198347 Z M3.53719008,6.80909091 L7.60495868,6.80909091 L7.60495868,2.82975207 L3.53719008,2.82975207 L3.53719008,6.80909091 Z" id="Shape"></path>
                    </g>
                    <g transform="translate(20.338843, 45.099174)" fill="#EF463C">
                        <rect id="Rectangle-path" x="1.41487603" y="1.50330579" width="6.72066116" height="6.72066116"></rect>
                        <path d="M8.04710744,9.46198347 L1.32644628,9.46198347 C0.619008264,9.46198347 0,8.84297521 0,8.13553719 L0,1.50330579 C0,0.795867769 0.619008264,0.176859504 1.32644628,0.176859504 L8.04710744,0.176859504 C8.75454545,0.176859504 9.37355372,0.795867769 9.37355372,1.50330579 L9.37355372,8.13553719 C9.37355372,8.93140496 8.75454545,9.46198347 8.04710744,9.46198347 Z M2.74132231,6.80909091 L6.80909091,6.80909091 L6.80909091,2.82975207 L2.74132231,2.82975207 L2.74132231,6.80909091 Z" id="Shape"></path>
                    </g>
                    <g transform="translate(32.719008, 40.677686)">
                        <rect id="Rectangle-path" fill="#EF3B39" x="1.41487603" y="1.41487603" width="6.72066116" height="6.72066116"></rect>
                        <path d="M8.13553719,9.46198347 L1.41487603,9.46198347 C0.707438017,9.46198347 0.0884297521,8.84297521 0.0884297521,8.13553719 L0.0884297521,1.41487603 C0.0884297521,0.707438017 0.707438017,0.0884297521 1.41487603,0.0884297521 L8.13553719,0.0884297521 C8.84297521,0.0884297521 9.46198347,0.707438017 9.46198347,1.41487603 L9.46198347,8.13553719 C9.46198347,8.84297521 8.84297521,9.46198347 8.13553719,9.46198347 Z M2.74132231,6.80909091 L6.80909091,6.80909091 L6.80909091,2.74132231 L2.74132231,2.74132231 L2.74132231,6.80909091 Z" id="Shape" fill="#EF463C"></path>
                    </g>
                    <g transform="translate(57.479339, 33.603306)">
                        <rect id="Rectangle-path" fill="#EF3B39" x="1.94545455" y="1.85702479" width="6.72066116" height="6.72066116"></rect>
                        <path d="M8.6661157,9.81570248 L1.94545455,9.81570248 C1.23801653,9.81570248 0.619008264,9.19669421 0.619008264,8.4892562 L0.619008264,1.85702479 C0.619008264,1.14958678 1.23801653,0.530578512 1.94545455,0.530578512 L8.6661157,0.530578512 C9.37355372,0.530578512 9.99256198,1.14958678 9.99256198,1.85702479 L9.99256198,8.4892562 C9.99256198,9.28512397 9.37355372,9.81570248 8.6661157,9.81570248 Z M3.27190083,7.16280992 L7.33966942,7.16280992 L7.33966942,3.18347107 L3.27190083,3.18347107 L3.27190083,7.16280992 Z" id="Shape" fill="#EF463C"></path>
                    </g>
                    <g transform="translate(13.264463, 23.876033)" fill="#EF463C">
                        <rect id="Rectangle-path" x="1.76859504" y="1.76859504" width="6.72066116" height="6.72066116"></rect>
                        <path d="M8.4892562,9.81570248 L1.76859504,9.81570248 C1.06115702,9.81570248 0.44214876,9.19669421 0.44214876,8.4892562 L0.44214876,1.76859504 C0.44214876,1.06115702 1.06115702,0.44214876 1.76859504,0.44214876 L8.4892562,0.44214876 C9.19669421,0.44214876 9.81570248,1.06115702 9.81570248,1.76859504 L9.81570248,8.40082645 C9.81570248,9.19669421 9.19669421,9.81570248 8.4892562,9.81570248 Z M3.09504132,7.16280992 L7.16280992,7.16280992 L7.16280992,3.18347107 L3.09504132,3.18347107 L3.09504132,7.16280992 Z" id="Shape"></path>
                    </g>
                    <g transform="translate(43.330579, 27.413223)">
                        <rect id="Rectangle-path" fill="#EF3B39" x="1.50330579" y="1.32644628" width="6.72066116" height="6.72066116"></rect>
                        <path d="M8.13553719,9.37355372 L1.50330579,9.37355372 C0.795867769,9.37355372 0.176859504,8.75454545 0.176859504,8.04710744 L0.176859504,1.41487603 C0.176859504,0.707438017 0.795867769,0.0884297521 1.50330579,0.0884297521 L8.13553719,0.0884297521 C8.84297521,0.0884297521 9.46198347,0.707438017 9.46198347,1.41487603 L9.46198347,8.04710744 C9.46198347,8.75454545 8.84297521,9.37355372 8.13553719,9.37355372 Z M2.82975207,6.72066116 L6.80909091,6.72066116 L6.80909091,2.65289256 L2.82975207,2.65289256 L2.82975207,6.72066116 Z" id="Shape" fill="#EF463C"></path>
                    </g>
                    <g transform="translate(57.479339, 20.338843)">
                        <rect id="Rectangle-path" fill="#EF3B39" x="1.94545455" y="1.76859504" width="6.72066116" height="6.72066116"></rect>
                        <path d="M8.6661157,9.72727273 L1.94545455,9.72727273 C1.23801653,9.72727273 0.619008264,9.10826446 0.619008264,8.40082645 L0.619008264,1.76859504 C0.619008264,1.06115702 1.23801653,0.44214876 1.94545455,0.44214876 L8.6661157,0.44214876 C9.37355372,0.44214876 9.99256198,1.06115702 9.99256198,1.76859504 L9.99256198,8.4892562 C9.99256198,9.19669421 9.37355372,9.72727273 8.6661157,9.72727273 Z M3.27190083,7.07438017 L7.33966942,7.07438017 L7.33966942,3.00661157 L3.27190083,3.00661157 L3.27190083,7.07438017 Z" id="Shape" fill="#EF463C"></path>
                    </g>
                    <g transform="translate(32.719008, 14.148760)">
                        <rect id="Rectangle-path" fill="#EF3B39" x="1.41487603" y="1.23801653" width="6.72066116" height="6.72066116"></rect>
                        <path d="M8.13553719,9.28512397 L1.41487603,9.28512397 C0.707438017,9.28512397 0.0884297521,8.6661157 0.0884297521,7.95867769 L0.0884297521,1.32644628 C0.0884297521,0.619008264 0.707438017,0 1.41487603,0 L8.13553719,0 C8.84297521,0 9.46198347,0.619008264 9.46198347,1.32644628 L9.46198347,7.95867769 C9.46198347,8.6661157 8.84297521,9.28512397 8.13553719,9.28512397 Z M2.74132231,6.6322314 L6.80909091,6.6322314 L6.80909091,2.65289256 L2.74132231,2.65289256 L2.74132231,6.6322314 Z" id="Shape" fill="#EF463C"></path>
                    </g>
                    <g transform="translate(0.000000, 53.942149)" fill="#EF463C">
                        <rect id="Rectangle-path" x="1.68016529" y="1.50330579" width="6.72066116" height="6.72066116"></rect>
                        <path d="M8.40082645,9.55041322 L1.68016529,9.55041322 C0.972727273,9.55041322 0.353719008,8.93140496 0.353719008,8.22396694 L0.353719008,1.50330579 C0.353719008,0.795867769 0.972727273,0.176859504 1.68016529,0.176859504 L8.40082645,0.176859504 C9.10826446,0.176859504 9.72727273,0.795867769 9.72727273,1.50330579 L9.72727273,8.22396694 C9.72727273,8.93140496 9.10826446,9.55041322 8.40082645,9.55041322 Z M3.00661157,6.89752066 L7.07438017,6.89752066 L7.07438017,2.82975207 L3.00661157,2.82975207 L3.00661157,6.89752066 Z" id="Shape"></path>
                    </g>
                    <g transform="translate(57.479339, 0.000000)">
                        <rect id="Rectangle-path" fill="#EF3B39" x="1.94545455" y="2.0338843" width="6.72066116" height="6.72066116"></rect>
                        <path d="M8.6661157,10.0809917 L1.94545455,10.0809917 C1.23801653,10.0809917 0.619008264,9.46198347 0.619008264,8.75454545 L0.619008264,2.12231405 C0.619008264,1.41487603 1.23801653,0.795867769 1.94545455,0.795867769 L8.6661157,0.795867769 C9.37355372,0.795867769 9.99256198,1.41487603 9.99256198,2.12231405 L9.99256198,8.75454545 C9.99256198,9.46198347 9.37355372,10.0809917 8.6661157,10.0809917 Z M3.27190083,7.42809917 L7.33966942,7.42809917 L7.33966942,3.44876033 L3.27190083,3.44876033 L3.27190083,7.42809917 Z" id="Shape" fill="#EF463C"></path>
                    </g>
                </g>
                <circle id="Oval" fill="#FFFFFF" cx="51.2892562" cy="99.8371901" r="2.82975207"></circle>
            </g>
        </g>
    </g>
</svg>