<?xml version="1.0" encoding="UTF-8"?>
<svg width="138px" height="116px" viewBox="0 0 138 116" version="1.1" xmlns="http://www.w3.org/2000/svg" xmlns:xlink="http://www.w3.org/1999/xlink">
    <!-- Generator: Sketch 48.2 (47327) - http://www.bohemiancoding.com/sketch -->
    <title>Artboard 2 Copy 3</title>
    <desc>Created with Sketch.</desc>
    <defs></defs>
    <g id="ILN---Website" stroke="none" stroke-width="1" fill="none" fill-rule="evenodd">
        <g id="Artboard-2-Copy-3">
            <circle id="Oval-2-Copy-8" fill="#D1CECA" style="mix-blend-mode: multiply;" cx="59.5" cy="50.5" r="49.5"></circle>
            <g id="INVITE-Copy" transform="translate(0.000000, 1.000000)" fill-rule="nonzero">
                <path d="M52.7050847,34.3962406 C52,34.3962406 51.3830508,33.7804511 51.3830508,33.0766917 L51.3830508,16.0105263 C51.3830508,15.3067669 52,14.6909774 52.7050847,14.6909774 C53.4101695,14.6909774 54.0271186,15.3067669 54.0271186,16.0105263 L54.0271186,33.0766917 C54.0271186,33.7804511 53.4101695,34.3962406 52.7050847,34.3962406 Z" id="Shape" fill="#EF463C"></path>
                <path d="M43.1864407,33.1646617 C42.6576271,33.1646617 42.2169492,32.9007519 41.9525424,32.3729323 L36.3118644,19.6172932 C36.2237288,19.4413534 36.2237288,19.2654135 36.2237288,19.0894737 C36.2237288,18.5616541 36.4881356,18.1218045 37.0169492,17.8578947 C37.7220339,17.593985 38.4271186,17.8578947 38.779661,18.5616541 L44.420339,31.3172932 C44.5084746,31.4932331 44.5084746,31.6691729 44.5084746,31.8451128 C44.5084746,32.3729323 44.2440678,32.812782 43.7152542,33.0766917 C43.6271186,33.0766917 43.3627119,33.1646617 43.1864407,33.1646617 Z" id="Shape" fill="#EF463C"></path>
                <path d="M32.6101695,36.6834586 L28.379661,32.812782 L24.1491525,28.9421053 C23.8847458,28.6781955 23.7084746,28.3263158 23.7084746,27.9744361 C23.7084746,27.6225564 23.7966102,27.3586466 24.0610169,27.0947368 C24.5898305,26.5669173 25.3830508,26.4789474 25.9118644,27.0067669 L34.4610169,34.7481203 L32.6101695,36.6834586 Z" id="Shape" fill="#EF463C"></path>
                <path d="M19.6542373,43.3691729 C19.4779661,43.3691729 19.3898305,43.3691729 19.2135593,43.281203 L16.5694915,42.4015038 C16.040678,42.2255639 15.6881356,41.6977444 15.6881356,41.1699248 C15.6881356,40.993985 15.6881356,40.906015 15.7762712,40.7300752 C16.040678,40.0263158 16.7457627,39.6744361 17.4508475,39.8503759 L20.0949153,40.7300752 C20.6237288,40.906015 20.9762712,41.4338346 20.9762712,41.9616541 C20.9762712,42.137594 20.9762712,42.2255639 20.8881356,42.4015038 C20.7118644,43.0172932 20.1830508,43.3691729 19.6542373,43.3691729 Z" id="Shape" fill="#EF463C"></path>
                <path d="M62.2237288,33.1646617 C62.0474576,33.1646617 61.8711864,33.1646617 61.6949153,33.0766917 C61.1661017,32.9007519 60.9016949,32.3729323 60.9016949,31.8451128 C60.9016949,31.6691729 60.9016949,31.4932331 60.9898305,31.3172932 L66.6305085,18.5616541 C66.8949153,17.8578947 67.6881356,17.593985 68.3932203,17.8578947 C68.9220339,18.0338346 69.1864407,18.5616541 69.1864407,19.0894737 C69.1864407,19.2654135 69.1864407,19.4413534 69.0983051,19.6172932 L66.2779661,25.9511278 L63.4576271,32.2849624 C63.1932203,32.812782 62.6644068,33.1646617 62.2237288,33.1646617 Z" id="Shape" fill="#EF463C"></path>
                <path d="M70.7728814,38.0909774 C70.420339,38.0909774 70.0677966,37.9150376 69.8033898,37.6511278 C69.5389831,37.387218 69.4508475,37.1233083 69.4508475,36.7714286 C69.4508475,36.4195489 69.6271186,36.0676692 69.8915254,35.8037594 L78.440678,28.062406 C78.9694915,27.5345865 79.8508475,27.6225564 80.2915254,28.1503759 C80.5559322,28.4142857 80.6440678,28.6781955 80.6440678,29.0300752 C80.6440678,29.3819549 80.4677966,29.7338346 80.2033898,29.9977444 L71.6542373,37.7390977 C71.3898305,38.0030075 71.1254237,38.0909774 70.7728814,38.0909774 Z" id="Shape" fill="#EF463C"></path>
                <path d="M84.6101695,44.512782 C84.0813559,44.512782 83.5525424,44.1609023 83.3762712,43.6330827 C83.2881356,43.4571429 83.2881356,43.3691729 83.2881356,43.1932331 C83.2881356,42.6654135 83.640678,42.137594 84.1694915,41.9616541 L86.8135593,41.0819549 C87.5186441,40.8180451 88.2237288,41.2578947 88.4881356,41.9616541 C88.5762712,42.137594 88.5762712,42.2255639 88.5762712,42.4015038 C88.5762712,42.9293233 88.2237288,43.4571429 87.6949153,43.6330827 L86.3728814,43.9849624 L85.0508475,44.424812 C84.8745763,44.424812 84.7864407,44.512782 84.6101695,44.512782 Z" id="Shape" fill="#EF463C"></path>
                <ellipse id="Oval" fill="#231F20" cx="76.2372881" cy="66.0654135" rx="9.16610169" ry="9.14887218"></ellipse>
                <path d="M60.7254237,100.901504 C60.6372881,97.4706767 60.5491525,93.1601504 60.9016949,92.1045113 C61.2542373,90.3451128 63.7220339,77.7654135 76.2372881,77.237594 C83.0237288,76.9736842 87.0779661,80.4045113 89.4576271,84.187218 C91.3966102,87.3541353 60.8135593,103.276692 60.7254237,100.901504 Z" id="Shape" fill="#231F20"></path>
                <ellipse id="Oval" fill="#231F20" cx="27.4101695" cy="66.0654135" rx="9.16610169" ry="9.14887218"></ellipse>
                <path d="M15.2474576,84.275188 C17.4508475,80.8443609 21.240678,77.5894737 27.4983051,77.3255639 C39.9254237,76.7977444 43.1864407,88.6736842 43.7152542,92.5443609 C43.979661,94.5676692 43.979661,97.9984962 43.8915254,100.813534 C43.8033898,103.452632 13.0440678,87.706015 15.2474576,84.275188 Z" id="Shape" fill="#231F20"></path>
                <ellipse id="Oval" fill="#231F20" cx="51.4711864" cy="59.643609" rx="9.16610169" ry="9.14887218"></ellipse>
                <g id="Group" transform="translate(34.372881, 69.496241)">
                    <path d="M1.85084746,29.293985 C1.85084746,29.293985 1.3220339,18.0338346 1.85084746,16.1864662 C2.20338983,14.4270677 4.67118644,1.84736842 17.1864407,1.31954887 C29.6135593,0.791729323 32.8745763,12.6676692 33.4033898,16.5383459 C33.9322034,20.4090226 33.4033898,29.4699248 33.4033898,29.4699248 C33.4033898,29.4699248 19.9186441,35.7157895 1.85084746,29.293985 Z" id="Shape" fill="#231F20"></path>
                    <path d="M18.5084746,33.6045113 C13.5728814,33.6045113 7.7559322,32.812782 1.41016949,30.5255639 L0.616949153,30.2616541 L0.616949153,29.3819549 C0.528813559,27.4466165 0.0881355932,18.0338346 0.616949153,15.9225564 C1.3220339,12.2278195 4.58305085,0.615789474 17.1864407,0.0879699248 C22.9152542,-0.17593985 27.6745763,2.1112782 30.9355932,6.59774436 C33.8440678,10.6443609 34.6372881,15.218797 34.8135593,16.4503759 C35.3423729,20.4090226 34.9016949,29.293985 34.8135593,29.6458647 L34.7254237,30.437594 L34.020339,30.7894737 C33.579661,30.8774436 27.6745763,33.6045113 18.5084746,33.6045113 Z M3.08474576,28.3263158 C17.7152542,33.2526316 29.1728814,29.7338346 32.0813559,28.6781955 C32.1694915,26.3909774 32.4338983,19.881203 31.9932203,16.8022556 C31.8169492,15.3067669 29.6135593,2.1112782 17.0983051,2.63909774 C13.6610169,2.81503759 5.37627119,4.39849624 3.08474576,16.4503759 L3.08474576,16.5383459 C2.82033898,17.506015 2.90847458,23.1360902 3.08474576,28.3263158 Z" id="Shape" fill="#C9C5C2"></path>
                </g>
                <g id="Group" fill="#EF463C">
                    <path d="M52.1762712,102.572932 C50.7661017,102.572932 49.4440678,102.484962 48.0338983,102.396992 C47.3288136,102.309023 46.8,101.693233 46.8,100.989474 C46.8881356,100.285714 47.5050847,99.7578947 48.2101695,99.7578947 C53.1457627,100.197744 58.0813559,99.8458647 63.0169492,98.7022556 C89.3694915,92.7203008 105.850847,66.5052632 99.9457627,40.2902256 C98.6237288,34.4842105 96.2440678,28.9421053 92.9830508,24.0157895 C92.5423729,23.4 92.7186441,22.6082707 93.3355932,22.1684211 C93.9525424,21.7285714 94.7457627,21.9045113 95.1864407,22.5203008 C98.6237288,27.7105263 101.091525,33.5165414 102.501695,39.6744361 C108.759322,67.3849624 91.3084746,95.0075188 63.6338983,101.253383 C59.8440678,102.133083 56.0542373,102.572932 52.1762712,102.572932 Z" id="Shape"></path>
                    <path d="M40.3661017,101.165414 C40.2779661,101.165414 40.1898305,101.165414 40.0135593,101.165414 C20.8881356,96.5030075 6.34576271,81.6360902 1.93898305,62.5466165 C-2.99661017,40.8180451 6.5220339,18.4736842 25.7355932,7.03759398 C26.3525424,6.68571429 27.1457627,6.86165414 27.5864407,7.47744361 C28.0271186,8.09323308 27.7627119,8.88496241 27.1457627,9.32481203 C8.98983051,20.2330827 -0.0881355932,41.3458647 4.58305085,62.018797 C8.72542373,80.2285714 22.5627119,94.2157895 40.7186441,98.7022556 C41.4237288,98.8781955 41.8644068,99.5819549 41.6881356,100.285714 C41.4237288,100.725564 40.8949153,101.165414 40.3661017,101.165414 Z" id="Shape"></path>
                    <path d="M32.8745763,6.15789474 C32.3457627,6.15789474 31.9050847,5.89398496 31.640678,5.36616541 C31.3762712,4.66240602 31.640678,3.95864662 32.3457627,3.60676692 C35.0779661,2.46315789 37.8983051,1.58345865 40.8067797,0.879699248 C41.5118644,0.703759398 42.2169492,1.14360902 42.3932203,1.84736842 C42.5694915,2.55112782 42.1288136,3.25488722 41.4237288,3.43082707 C38.6915254,4.04661654 35.959322,4.92631579 33.4033898,5.98195489 C33.2271186,6.06992481 33.0508475,6.15789474 32.8745763,6.15789474 Z" id="Shape"></path>
                </g>
                <ellipse id="Oval" stroke="#EF463D" stroke-width="2.4" fill="#F6F5F5" transform="translate(83.857633, 99.220539) rotate(-70.427114) translate(-83.857633, -99.220539) " cx="83.8576325" cy="99.2205392" rx="13.5726495" ry="13.547137"></ellipse>
                <g id="Group" transform="translate(75.796610, 91.488722)" fill="#EF463D">
                    <polygon id="Shape" stroke="#979797" points="9.34237288 0.439849624 9.34237288 6.77368421 15.4237288 6.77368421 15.4237288 9.50075188 9.34237288 9.50075188 9.34237288 15.9225564 6.5220339 15.9225564 6.5220339 9.50075188 0.440677966 9.50075188 0.440677966 6.77368421 6.5220339 6.77368421 6.5220339 0.439849624"></polygon>
                    <path d="M9.78305085,16.2744361 L6.08135593,16.2744361 L6.08135593,9.85263158 L0,9.85263158 L0,6.24586466 L6.08135593,6.24586466 L6.08135593,0 L9.78305085,0 L9.78305085,6.33383459 L15.8644068,6.33383459 L15.8644068,9.9406015 L9.78305085,9.9406015 L9.78305085,16.2744361 Z M6.96271186,15.3947368 L8.90169492,15.3947368 L8.90169492,8.97293233 L14.9830508,8.97293233 L14.9830508,7.12556391 L8.90169492,7.12556391 L8.90169492,0.879699248 L6.96271186,0.879699248 L6.96271186,7.21353383 L0.881355932,7.21353383 L0.881355932,9.06090226 L6.96271186,9.06090226 L6.96271186,15.3947368 Z" id="Shape"></path>
                </g>
            </g>
        </g>
    </g>
</svg>