<?xml version="1.0" encoding="UTF-8"?>
<svg width="19px" height="19px" viewBox="0 0 19 19" version="1.1" xmlns="http://www.w3.org/2000/svg" xmlns:xlink="http://www.w3.org/1999/xlink">
    <!-- Generator: Sketch 48.2 (47327) - http://www.bohemiancoding.com/sketch -->
    <title>Facebook</title>
    <desc>Created with Sketch.</desc>
    <defs></defs>
    <g id="ILN---Website" stroke="none" stroke-width="1" fill="none" fill-rule="evenodd">
        <g id="Facebook" fill="#FFFFFF" fill-rule="nonzero">
            <g id="Group-4-Copy-2">
                <path d="M18.6221591,2.85686747 C18.6221591,7.29783133 18.6221591,11.7387952 18.6221591,16.179759 C18.6041667,16.2438554 18.5861742,16.3033735 18.5726799,16.3674699 C18.3027936,17.6814458 17.5381155,18.5284337 16.2696496,18.8946988 C16.1347064,18.9359036 15.9952652,18.9633735 15.8558239,18.9954217 C11.492661,18.9954217 7.12949811,18.9954217 2.76633523,18.9954217 C2.71685606,18.9816867 2.66287879,18.9587952 2.61339962,18.9496386 C1.4124053,18.7161446 0.598248106,18.0110843 0.17092803,16.8436145 C0.0944602273,16.6284337 0.0539772727,16.3995181 0,16.1751807 C0,11.7342169 0,7.29325301 0,2.85228916 C0.0179924242,2.7973494 0.0359848485,2.73783133 0.0449810606,2.68289157 C0.310369318,1.35518072 1.08404356,0.503614458 2.36600379,0.137349398 C2.49644886,0.100722892 2.63139205,0.073253012 2.76633523,0.036626506 C7.12949811,0.036626506 11.492661,0.036626506 15.8558239,0.036626506 C15.9098011,0.0503614458 15.9682765,0.073253012 16.0222538,0.0824096386 C17.3267045,0.357108434 18.1633523,1.14 18.5232008,2.44481928 C18.5591856,2.58674699 18.5861742,2.72409639 18.6221591,2.85686747 Z M16.2921402,6.81253012 C16.2111742,6.80795181 16.1482008,6.80337349 16.0852273,6.80337349 C15.0461648,6.80337349 14.0026042,6.80337349 12.9635417,6.80337349 C12.8555871,6.80337349 12.806108,6.78506024 12.806108,6.65686747 C12.8151042,6.14409639 12.8106061,5.62674699 12.8151042,5.1139759 C12.8151042,4.96746988 12.8375947,4.82096386 12.8690814,4.67903614 C12.9320549,4.39060241 13.1254735,4.21662651 13.4178504,4.18457831 C13.5437973,4.17084337 13.6742424,4.16168675 13.8046875,4.16168675 C14.5738636,4.16168675 15.3430398,4.15710843 16.1077178,4.16626506 C16.2471591,4.16626506 16.2831439,4.12506024 16.2786458,3.98771084 C16.2741477,3.12698795 16.2741477,2.26168675 16.2741477,1.40096386 C16.2741477,1.3460241 16.2696496,1.29566265 16.2651515,1.23156627 C16.2201705,1.22698795 16.1841856,1.22240964 16.1526989,1.22240964 C15.1361269,1.22240964 14.1195549,1.22240964 13.102983,1.22240964 C12.5587121,1.22240964 12.0234375,1.27277108 11.5016572,1.42843373 C10.7054924,1.66650602 10.0802557,2.12891566 9.71141098,2.89807229 C9.43702652,3.46578313 9.32457386,4.0746988 9.31107955,4.6973494 C9.29758523,5.33831325 9.30658144,5.97927711 9.30208333,6.62024096 C9.30208333,6.67518072 9.30208333,6.73012048 9.30208333,6.79879518 C9.23011364,6.79879518 9.17613636,6.79879518 9.12215909,6.79879518 C8.67684659,6.79879518 8.23153409,6.80337349 7.78172348,6.79421687 C7.63778409,6.78963855 7.61079545,6.84 7.61079545,6.9773494 C7.61529356,7.76939759 7.61529356,8.56144578 7.61529356,9.35349398 C7.61529356,9.40385542 7.61979167,9.45421687 7.62428977,9.51831325 C8.18655303,9.51831325 8.73982008,9.51831325 9.30658144,9.51831325 C9.30658144,12.2927711 9.30658144,15.0489157 9.30658144,17.8050602 C10.476089,17.8050602 11.6276042,17.8050602 12.8016098,17.8050602 C12.8016098,15.0443373 12.8016098,12.2881928 12.8016098,9.51373494 C13.8181818,9.51373494 14.8167614,9.51373494 15.8243371,9.51373494 C15.9862689,8.61638554 16.1347064,7.72819277 16.2921402,6.81253012 Z" id="Shape"></path>
            </g>
        </g>
    </g>
</svg>