<?xml version="1.0" encoding="UTF-8"?>
<svg width="20px" height="19px" viewBox="0 0 20 19" version="1.1" xmlns="http://www.w3.org/2000/svg" xmlns:xlink="http://www.w3.org/1999/xlink">
    <!-- Generator: Sketch 48.2 (47327) - http://www.bohemiancoding.com/sketch -->
    <title>Instagram</title>
    <desc>Created with Sketch.</desc>
    <defs></defs>
    <g id="ILN---Website" stroke="none" stroke-width="1" fill="none" fill-rule="evenodd">
        <g id="Instagram" fill="#FFFFFF" fill-rule="nonzero">
            <g id="Group-6-Copy-2">
                <path d="M19.2388731,9.45879518 C19.2118845,10.8689157 19.193892,12.2103614 19.148911,13.5518072 C19.1129261,14.673494 18.8655303,15.740241 18.2312973,16.6833735 C17.3451705,18.0019277 16.0722064,18.6749398 14.5428504,18.839759 C13.6657197,18.9313253 12.7750947,18.9587952 11.8934659,18.9587952 C9.92329545,18.9587952 7.953125,18.9404819 5.98295455,18.9038554 C4.98887311,18.8855422 4.03527462,18.6657831 3.17163826,18.1484337 C1.81770833,17.3380723 1.04403409,16.1019277 0.832623106,14.5453012 C0.697679924,13.5426506 0.666193182,12.5216867 0.661695076,11.5098795 C0.652698864,9.51373494 0.675189394,7.51759036 0.715672348,5.52144578 C0.738162879,4.39060241 0.994554924,3.31012048 1.63328598,2.36240964 C2.51941288,1.04385542 3.79237689,0.370843373 5.32623106,0.206024096 C6.18536932,0.114457831 7.05800189,0.0869879518 7.92613636,0.0869879518 C9.93229167,0.0869879518 11.9339489,0.0915662651 13.9401042,0.151084337 C15.4649621,0.19686747 16.8368845,0.682168675 17.8804451,1.89084337 C18.7395833,2.88891566 19.0904356,4.08385542 19.148911,5.37493976 C19.2028883,6.75301205 19.2118845,8.14024096 19.2388731,9.45879518 Z M9.92329545,17.3014458 C11.3806818,17.2510843 12.8515625,17.246506 14.3089489,17.1366265 C15.6044034,17.0359036 16.647964,16.4224096 17.1292614,15.1313253 C17.3361742,14.5819277 17.4441288,13.9684337 17.4666193,13.3778313 C17.5250947,11.693012 17.538589,10.0036145 17.5340909,8.31879518 C17.5295928,7.23373494 17.5071023,6.14409639 17.4216383,5.06361446 C17.3316761,3.9373494 16.8638731,2.98963855 15.8697917,2.38987952 C15.2355587,2.0053012 14.524858,1.84963855 13.8006629,1.84506024 C11.2232481,1.82674699 8.65033144,1.82674699 6.07291667,1.84506024 C5.34872159,1.84963855 4.63802083,2.00072289 4.00378788,2.3853012 C3.01420455,2.98506024 2.5374053,3.92819277 2.44744318,5.05903614 C2.36197917,6.11204819 2.33948864,7.17421687 2.33948864,8.23180723 C2.33499053,9.95325301 2.35748106,11.6746988 2.39346591,13.3961446 C2.40696023,14.1607229 2.54640152,14.9115663 2.94223485,15.58 C3.53148674,16.573494 4.45809659,17.0633735 5.55563447,17.1412048 C7.00402462,17.2373494 8.46141098,17.2510843 9.92329545,17.3014458 Z" id="Shape"></path>
                <path d="M14.7047822,9.51831325 C14.7047822,12.1966265 12.5681818,14.3759036 9.94128788,14.3713253 C7.29190341,14.3713253 5.15980114,12.2012048 5.16429924,9.50457831 C5.16879735,6.82626506 7.30089962,4.6653012 9.94128788,4.6653012 C12.5726799,4.6653012 14.7047822,6.83542169 14.7047822,9.51831325 Z M9.92779356,6.37759036 C8.21401515,6.38216867 6.83309659,7.80144578 6.84659091,9.53662651 C6.86008523,11.2672289 8.24100379,12.6681928 9.93678977,12.6636145 C11.6460701,12.6590361 13.0314867,11.2351807 13.0179924,9.5 C13.0089962,7.76939759 11.6280777,6.37301205 9.92779356,6.37759036 Z" id="Shape"></path>
                <path d="M14.8982008,3.34216867 C15.5279356,3.34674699 16.0137311,3.85493976 16.0047348,4.49590361 C15.9957386,5.11855422 15.500947,5.61759036 14.8892045,5.61301205 C14.2639678,5.61301205 13.764678,5.10481928 13.7691761,4.47301205 C13.7781723,3.83204819 14.272964,3.33759036 14.8982008,3.34216867 Z" id="Shape"></path>
            </g>
        </g>
    </g>
</svg>