<?xml version="1.0" encoding="UTF-8"?>
<svg width="66px" height="66px" viewBox="0 0 66 66" version="1.1" xmlns="http://www.w3.org/2000/svg" xmlns:xlink="http://www.w3.org/1999/xlink">
    <!-- Generator: Sketch 48.2 (47327) - http://www.bohemiancoding.com/sketch -->
    <title>Nav - ILN Logo </title>
    <desc>Created with Sketch.</desc>
    <defs></defs>
    <g id="ILN---Website" stroke="none" stroke-width="1" fill="none" fill-rule="evenodd">
        <g id="Nav---ILN-Logo-" fill-rule="nonzero">
            <g id="LOGO">
                <rect id="Rectangle-path" fill="#EF463D" x="0" y="0.0385964912" width="66" height="65.871345"></rect>
                <g id="Group" transform="translate(8.636719, 17.239766)">
                    <polygon id="Shape" fill="#34376B" points="2.82304688 0.295906433 2.77148437 0.295906433 2.77148437 0.347368421 2.70703125 0.347368421 2.70703125 0.398830409 2.65546875 0.398830409 2.65546875 0.450292398 2.60390625 0.450292398 2.60390625 0.501754386 2.55234375 0.501754386 2.55234375 0.553216374 2.50078125 0.553216374 2.50078125 0.61754386 2.44921875 0.61754386 2.44921875 0.669005848 2.39765625 0.669005848 2.39765625 0.720467836 2.33320312 0.720467836 2.33320312 0.771929825 2.28164062 0.771929825 2.28164062 0.823391813 2.23007812 0.823391813 2.23007812 0.874853801 2.17851563 0.874853801 2.17851563 0.926315789 2.12695312 0.926315789 2.12695312 0.990643275 2.07539062 0.990643275 2.07539062 1.04210526 2.02382813 1.04210526 2.02382813 1.09356725 1.97226562 1.09356725 1.97226562 1.14502924 1.9078125 1.14502924 1.9078125 1.19649123 1.85625 1.19649123 1.85625 1.24795322 1.8046875 1.24795322 1.8046875 1.2994152 1.753125 1.2994152 1.753125 1.35087719 1.7015625 1.35087719 1.7015625 1.41520468 1.65 1.41520468 1.65 1.46666667 1.5984375 1.46666667 1.5984375 1.51812865 1.53398438 1.51812865 1.53398438 1.56959064 1.48242188 1.56959064 1.48242188 1.62105263 1.43085937 1.62105263 1.43085937 1.67251462 1.37929688 1.67251462 1.37929688 1.72397661 1.32773437 1.72397661 1.32773437 1.78830409 1.27617188 1.78830409 1.27617188 1.83976608 1.22460938 1.83976608 1.22460938 1.89122807 1.17304687 1.89122807 1.17304687 1.94269006 1.10859375 1.94269006 1.10859375 1.99415205 1.05703125 1.99415205 1.05703125 2.04561404 1.00546875 2.04561404 1.00546875 2.09707602 0.95390625 2.09707602 0.95390625 2.16140351 0.90234375 2.16140351 0.90234375 2.2128655 0.85078125 2.2128655 0.85078125 2.26432749 0.79921875 2.26432749 0.79921875 2.31578947 0.734765625 2.31578947 0.734765625 2.36725146 0.683203125 2.36725146 0.683203125 2.41871345 0.631640625 2.41871345 0.631640625 2.47017544 0.580078125 2.47017544 0.580078125 2.52163743 0.528515625 2.52163743 0.528515625 2.58596491 0.476953125 2.58596491 0.476953125 2.6374269 0.425390625 2.6374269 0.425390625 2.68888889 0.3609375 2.68888889 0.3609375 2.74035088 0.309375 2.74035088 0.309375 2.79181287 0.2578125 2.79181287 0.2578125 2.84327485 0.20625 2.84327485 0.20625 2.89473684 0.1546875 2.89473684 0.1546875 2.95906433 0.103125 2.95906433 0.103125 31.2631579 5.49140625 31.0444444 5.49140625 30.9929825 5.54296875 30.9929825 5.54296875 30.9415205 5.59453125 30.9415205 5.59453125 30.8900585 5.65898437 30.8900585 5.65898437 30.8385965 5.71054688 30.8385965 5.71054688 30.7871345 5.76210937 30.7871345 5.76210937 30.7356725 5.81367187 30.7356725 5.81367187 30.671345 5.86523437 30.671345 5.86523437 30.619883 5.91679687 30.619883 5.91679687 30.5684211 5.96835938 30.5684211 5.96835938 30.5169591 6.01992187 30.5169591 6.01992187 30.4654971 6.084375 30.4654971 6.084375 30.4140351 6.1359375 30.4140351 6.1359375 30.3625731 6.1875 30.3625731 6.1875 30.2982456 6.2390625 30.2982456 6.2390625 30.2467836 6.290625 30.2467836 6.290625 30.1953216 6.3421875 30.1953216 6.3421875 30.1438596 6.39375 30.1438596 6.39375 30.0923977 6.45820312 30.0923977 6.45820312 30.0409357 6.50976562 30.0409357 6.50976562 29.9894737 6.56132812 29.9894737 6.56132812 29.9251462 6.61289063 29.9251462 6.61289063 29.8736842 6.66445312 29.8736842 6.66445312 29.8222222 6.71601562 29.8222222 6.71601562 29.7707602 6.76757812 29.7707602 6.76757812 29.7192982 6.83203125 29.7192982 6.83203125 29.6678363 6.88359375 29.6678363 6.88359375 29.6163743 6.93515625 29.6163743 6.93515625 29.5649123 6.98671875 29.5649123 6.98671875 29.5005848 7.03828125 29.5005848 7.03828125 29.4491228 7.08984375 29.4491228 7.08984375 29.3976608 7.14140625 29.3976608 7.14140625 29.3461988 7.19296875 29.3461988 7.19296875 29.2947368 7.25742187 29.2947368 7.25742187 29.2432749 7.30898437 29.2432749 7.30898437 29.1918129 7.36054687 29.1918129 7.36054687 29.1274854 7.41210937 29.1274854 7.41210937 29.0760234 7.46367187 29.0760234 7.46367187 29.0245614 7.51523438 29.0245614 7.51523438 28.9730994 7.56679687 28.9730994 7.56679687 28.9216374 7.63125 28.9216374 7.63125 28.8701754 7.6828125 28.8701754 7.6828125 28.8187135 7.734375 28.8187135 7.734375 28.7672515 7.7859375 28.7672515 7.7859375 28.702924 7.8375 28.702924 7.8375 28.651462 7.8890625 28.651462 7.8890625 28.6 7.940625 28.6 7.940625 28.548538 8.00507812 28.548538 8.00507812 28.497076 8.05664062 28.497076 8.05664062 28.445614 8.10820313 28.445614 8.10820313 28.394152 8.15976563 28.394152 8.15976563 28.3298246 8.21132812 28.3298246 8.21132812 0.244444444 2.82304688 0.244444444"></polygon>
                    <polygon id="Shape" fill="#34376B" points="19.59375 0.167251462 14.23125 0.167251462 14.23125 0.21871345 14.1667969 0.21871345 14.1667969 0.270175439 14.1152344 0.270175439 14.1152344 0.334502924 14.0636719 0.334502924 14.0636719 0.385964912 14.0121094 0.385964912 14.0121094 0.437426901 13.9605469 0.437426901 13.9605469 0.488888889 13.9089844 0.488888889 13.9089844 0.540350877 13.8574219 0.540350877 13.8574219 0.591812865 13.8058594 0.591812865 13.8058594 0.643274854 13.7414062 0.643274854 13.7414062 0.694736842 13.6898437 0.694736842 13.6898437 0.74619883 13.6382813 0.74619883 13.6382813 0.810526316 13.5867187 0.810526316 13.5867187 0.861988304 13.5351562 0.861988304 13.5351562 0.913450292 13.4835937 0.913450292 13.4835937 0.964912281 13.4320312 0.964912281 13.4320312 1.01637427 13.3804688 1.01637427 13.3804688 1.06783626 13.3289062 1.06783626 13.3289062 1.11929825 13.2644531 1.11929825 13.2644531 1.17076023 13.2128906 1.17076023 13.2128906 1.23508772 13.1613281 1.23508772 13.1613281 1.28654971 13.1097656 1.28654971 13.1097656 1.3380117 13.0582031 1.3380117 13.0582031 1.38947368 13.0066406 1.38947368 13.0066406 1.44093567 12.9550781 1.44093567 12.9550781 1.49239766 12.9035156 1.49239766 12.9035156 1.54385965 12.8390625 1.54385965 12.8390625 1.59532164 12.7875 1.59532164 12.7875 1.65964912 12.7359375 1.65964912 12.7359375 1.71111111 12.684375 1.71111111 12.684375 1.7625731 12.6328125 1.7625731 12.6328125 1.81403509 12.58125 1.81403509 12.58125 1.86549708 12.5296875 1.86549708 12.5296875 1.91695906 12.478125 1.91695906 12.478125 1.96842105 12.4265625 1.96842105 12.4265625 2.01988304 12.3621094 2.01988304 12.3621094 2.07134503 12.3105469 2.07134503 12.3105469 2.13567251 12.2589844 2.13567251 12.2589844 2.1871345 12.2074219 2.1871345 12.2074219 2.23859649 12.1558594 2.23859649 12.1558594 2.29005848 12.1042969 2.29005848 12.1042969 2.34152047 12.0527344 2.34152047 12.0527344 2.39298246 12.0011719 2.39298246 12.0011719 2.44444444 11.9367187 2.44444444 11.9367187 2.49590643 11.8851562 2.49590643 11.8851562 2.56023392 11.8335938 2.56023392 11.8335938 2.61169591 11.7820312 2.61169591 11.7820312 2.66315789 11.7304687 2.66315789 11.7304687 2.71461988 11.6789062 2.71461988 11.6789062 2.76608187 11.6273437 2.76608187 11.6273437 2.81754386 11.5757813 2.81754386 11.5757813 2.86900585 11.5113281 2.86900585 11.5113281 31.2631579 24.646875 30.851462 24.646875 30.8 24.6984375 30.8 24.6984375 30.748538 24.75 30.748538 24.75 30.697076 24.8015625 30.697076 24.8015625 30.645614 24.853125 30.645614 24.853125 30.594152 24.9046875 30.594152 24.9046875 30.5298246 24.9691406 30.5298246 24.9691406 30.4783626 25.0207031 30.4783626 25.0207031 30.4269006 25.0722656 30.4269006 25.0722656 30.3754386 25.1238281 30.3754386 25.1238281 30.3239766 25.1753906 30.3239766 25.1753906 30.2725146 25.2269531 30.2725146 25.2269531 30.2210526 25.2785156 30.2210526 25.2785156 30.1695906 25.3300781 30.1695906 25.3300781 30.1181287 25.3816406 30.1181287 25.3816406 30.0538012 25.4460937 30.0538012 25.4460937 30.0023392 25.4976563 30.0023392 25.4976563 29.9508772 25.5492188 29.9508772 25.5492188 29.8994152 25.6007813 29.8994152 25.6007813 29.8479532 25.6523438 29.8479532 25.6523438 29.7964912 25.7039062 29.7964912 25.7039062 29.7450292 25.7554688 29.7450292 25.7554688 29.6935673 25.8070313 29.6935673 25.8070313 29.6292398 25.8714844 29.6292398 25.8714844 29.5777778 25.9230469 29.5777778 25.9230469 29.5263158 25.9746094 29.5263158 25.9746094 29.4748538 26.0261719 29.4748538 26.0261719 29.4233918 26.0777344 29.4233918 26.0777344 29.3719298 26.1292969 29.3719298 26.1292969 29.3204678 26.1808594 29.3204678 26.1808594 29.2690058 26.2324219 29.2690058 26.2324219 29.2175439 26.2839844 29.2175439 26.2839844 29.1532164 26.3484375 29.1532164 26.3484375 29.1017544 26.4 29.1017544 26.4 29.0502924 26.4515625 29.0502924 26.4515625 28.9988304 26.503125 28.9988304 26.503125 28.9473684 26.5546875 28.9473684 26.5546875 28.8959064 26.60625 28.8959064 26.60625 28.8444444 26.6578125 28.8444444 26.6578125 28.7929825 26.709375 28.7929825 26.709375 28.728655 26.7738281 28.728655 26.7738281 28.677193 26.8253906 28.677193 26.8253906 28.625731 26.8769531 28.625731 26.8769531 28.574269 26.9285156 28.574269 26.9285156 28.522807 26.9800781 28.522807 26.9800781 28.471345 27.0316406 28.471345 27.0316406 28.419883 27.0832031 28.419883 27.0832031 28.3684211 27.1347656 28.3684211 27.1347656 28.3040936 27.1992188 28.3040936 27.1992188 28.2526316 27.2507812 28.2526316 27.2507812 28.2011696 27.3023438 28.2011696 27.3023438 28.1497076 27.3539063 28.1497076 27.7148438 23.6467836 19.59375 23.6725146"></polygon>
                    <path d="M48.4171875,0.180116959 L43.10625,0.180116959 L43.10625,0.231578947 L43.0546875,0.231578947 L43.0546875,0.283040936 L43.003125,0.283040936 L43.003125,0.334502924 L42.9515625,0.334502924 L42.9515625,0.385964912 L42.9,0.385964912 L42.9,0.437426901 L42.8484375,0.437426901 L42.8484375,0.488888889 L42.796875,0.488888889 L42.796875,0.540350877 L42.7453125,0.540350877 L42.7453125,0.591812865 L42.69375,0.591812865 L42.69375,0.643274854 L42.6421875,0.643274854 L42.6421875,0.694736842 L42.590625,0.694736842 L42.590625,0.74619883 L42.5390625,0.74619883 L42.5390625,0.797660819 L42.4875,0.797660819 L42.4875,0.849122807 L42.4101562,0.849122807 L42.4101562,0.900584795 L42.3585937,0.900584795 L42.3585937,0.952046784 L42.3070312,0.952046784 L42.3070312,1.00350877 L42.2554687,1.00350877 L42.2554687,1.05497076 L42.2039063,1.05497076 L42.2039063,1.10643275 L42.1523438,1.10643275 L42.1523438,1.15789474 L42.1007813,1.15789474 L42.1007813,1.20935673 L42.0492188,1.20935673 L42.0492188,1.26081871 L41.9976563,1.26081871 L41.9976563,1.3122807 L41.9460938,1.3122807 L41.9460938,1.36374269 L41.8945313,1.36374269 L41.8945313,1.41520468 L41.8429688,1.41520468 L41.8429688,1.46666667 L41.765625,1.46666667 L41.765625,1.51812865 L41.7140625,1.51812865 L41.7140625,1.56959064 L41.6625,1.56959064 L41.6625,1.62105263 L41.6109375,1.62105263 L41.6109375,1.67251462 L41.559375,1.67251462 L41.559375,1.72397661 L41.5078125,1.72397661 L41.5078125,1.7754386 L41.45625,1.7754386 L41.45625,1.82690058 L41.4046875,1.82690058 L41.4046875,1.87836257 L41.353125,1.87836257 L41.353125,1.92982456 L41.3015625,1.92982456 L41.3015625,1.98128655 L41.25,1.98128655 L41.25,2.03274854 L41.1984375,2.03274854 L41.1984375,2.08421053 L41.146875,2.08421053 L41.146875,2.13567251 L41.0953125,2.13567251 L41.0953125,2.1871345 L41.04375,2.1871345 L41.04375,2.23859649 L40.9921875,2.23859649 L40.9921875,2.29005848 L40.940625,2.29005848 L40.940625,2.34152047 L40.8632812,2.34152047 L40.8632812,2.39298246 L40.8117187,2.39298246 L40.8117187,2.44444444 L40.7601562,2.44444444 L40.7601562,2.49590643 L40.7085938,2.49590643 L40.7085938,2.54736842 L40.6570313,2.54736842 L40.6570313,2.59883041 L40.6054688,2.59883041 L40.6054688,2.6502924 L40.5539063,2.6502924 L40.5539063,2.70175439 L40.5023438,2.70175439 L40.5023438,2.75321637 L40.4507813,2.75321637 L40.4507813,2.80467836 L40.3992188,2.80467836 L40.3992188,9.75204678 C39.2777344,6.76725146 38.0015625,3.40935673 36.7511719,0.257309942 L36.6867188,0.0900584795 L31.2984375,0.0900584795 L31.2984375,0.141520468 L31.246875,0.141520468 L31.246875,0.192982456 L31.1953125,0.192982456 L31.1953125,0.244444444 L31.14375,0.244444444 L31.14375,0.295906433 L31.0664062,0.295906433 L31.0664062,0.347368421 L31.0148438,0.347368421 L31.0148438,0.398830409 L30.9632813,0.398830409 L30.9632813,0.450292398 L30.9117188,0.450292398 L30.9117188,0.501754386 L30.8601563,0.501754386 L30.8601563,0.553216374 L30.8085938,0.553216374 L30.8085938,0.604678363 L30.7570313,0.604678363 L30.7570313,0.656140351 L30.7054688,0.656140351 L30.7054688,0.707602339 L30.6539063,0.707602339 L30.6539063,0.759064327 L30.6023438,0.759064327 L30.6023438,0.810526316 L30.5507813,0.810526316 L30.5507813,0.861988304 L30.4992188,0.861988304 L30.4992188,0.913450292 L30.421875,0.913450292 L30.421875,0.964912281 L30.3703125,0.964912281 L30.3703125,1.01637427 L30.31875,1.01637427 L30.31875,1.06783626 L30.2671875,1.06783626 L30.2671875,1.11929825 L30.215625,1.11929825 L30.215625,1.17076023 L30.1640625,1.17076023 L30.1640625,1.22222222 L30.1125,1.22222222 L30.1125,1.27368421 L30.0609375,1.27368421 L30.0609375,1.3251462 L30.009375,1.3251462 L30.009375,1.37660819 L29.9578125,1.37660819 L29.9578125,1.42807018 L29.90625,1.42807018 L29.90625,1.47953216 L29.8546875,1.47953216 L29.8546875,1.53099415 L29.803125,1.53099415 L29.803125,1.58245614 L29.7515625,1.58245614 L29.7515625,1.63391813 L29.7,1.63391813 L29.7,1.68538012 L29.6484375,1.68538012 L29.6484375,1.73684211 L29.596875,1.73684211 L29.596875,1.78830409 L29.5195313,1.78830409 L29.5195313,1.83976608 L29.4679688,1.83976608 L29.4679688,1.89122807 L29.4164063,1.89122807 L29.4164063,1.94269006 L29.3648438,1.94269006 L29.3648438,1.99415205 L29.3132813,1.99415205 L29.3132813,2.04561404 L29.2617188,2.04561404 L29.2617188,2.09707602 L29.2101563,2.09707602 L29.2101563,2.14853801 L29.1585938,2.14853801 L29.1585938,2.2 L29.1070313,2.2 L29.1070313,2.25146199 L29.0554688,2.25146199 L29.0554688,2.30292398 L29.0039063,2.30292398 L29.0039063,2.35438596 L28.9523438,2.35438596 L28.9523438,2.40584795 L28.875,2.40584795 L28.875,2.45730994 L28.8234375,2.45730994 L28.8234375,2.50877193 L28.771875,2.50877193 L28.771875,2.56023392 L28.7203125,2.56023392 L28.7203125,2.61169591 L28.66875,2.61169591 L28.66875,2.66315789 L28.6171875,2.66315789 L28.6171875,2.71461988 L28.565625,2.71461988 L28.5140625,31.2631579 L33.6316406,30.9929825 L33.6316406,30.9415205 L33.6832031,30.9415205 L33.6832031,30.8900585 L33.7347656,30.8900585 L33.7347656,30.8385965 L33.7863281,30.8385965 L33.7863281,30.7871345 L33.8378906,30.7871345 L33.8378906,30.7356725 L33.8894531,30.7356725 L33.8894531,30.6842105 L33.9410156,30.6842105 L33.9410156,30.6327485 L33.9925781,30.6327485 L33.9925781,30.5812865 L34.0441406,30.5812865 L34.0441406,30.5298246 L34.0957031,30.5298246 L34.0957031,30.4783626 L34.1472656,30.4783626 L34.1472656,30.4269006 L34.1988281,30.4269006 L34.1988281,30.3754386 L34.2503906,30.3754386 L34.2503906,30.3239766 L34.3019531,30.3239766 L34.3019531,30.2725146 L34.3535156,30.2725146 L34.3535156,30.2210526 L34.4050781,30.2210526 L34.4050781,30.1695906 L34.4566406,30.1695906 L34.4566406,30.1181287 L34.5082031,30.1181287 L34.5082031,30.0666667 L34.5597656,30.0666667 L34.5597656,30.0152047 L34.6113281,30.0152047 L34.6113281,29.9637427 L34.6628906,29.9637427 L34.6628906,29.9122807 L34.7144531,29.9122807 L34.7144531,29.8608187 L34.7660156,29.8608187 L34.7660156,29.8093567 L34.8175781,29.8093567 L34.8175781,29.7578947 L34.8691406,29.7578947 L34.8691406,29.7064327 L34.9207031,29.7064327 L34.9207031,29.6549708 L34.9722656,29.6549708 L34.9722656,29.6035088 L35.0238281,29.6035088 L35.0238281,29.5520468 L35.0753906,29.5520468 L35.0753906,29.5005848 L35.1269531,29.5005848 L35.1269531,29.4491228 L35.1785156,29.4491228 L35.1785156,29.3976608 L35.2300781,29.3976608 L35.2300781,29.3461988 L35.2816406,29.3461988 L35.2816406,29.2947368 L35.3332031,29.2947368 L35.3332031,29.2432749 L35.3847656,29.2432749 L35.3847656,29.1918129 L35.4363281,29.1918129 L35.4363281,29.1403509 L35.4878906,29.1403509 L35.4878906,29.0888889 L35.5394531,29.0888889 L35.5394531,29.0374269 L35.5910156,29.0374269 L35.5910156,28.9859649 L35.6425781,28.9859649 L35.6425781,28.9345029 L35.6941406,28.9345029 L35.6941406,28.8830409 L35.7457031,28.8830409 L35.7457031,28.8315789 L35.7972656,28.8315789 L35.7972656,28.780117 L35.8488281,28.780117 L35.8488281,28.728655 L35.9003906,28.728655 L35.9003906,28.677193 L35.9519531,28.677193 L35.9519531,28.625731 L36.0035156,28.625731 L36.0035156,28.574269 L36.0550781,28.574269 L36.0550781,28.522807 L36.1066406,28.522807 L36.1066406,28.471345 L36.1582031,28.471345 L36.1582031,28.419883 L36.2097656,28.419883 L36.2097656,28.3684211 L36.2613281,28.3684211 L36.2613281,20.6491228 C37.3570312,23.5181287 38.8136719,27.3520468 40.21875,30.9157895 L40.3734375,31.3532164 L45.5941406,31.0830409 L45.5941406,31.0315789 L45.6457031,31.0315789 L45.6457031,30.877193 L45.6972656,30.877193 L45.6972656,30.825731 L45.7488281,30.825731 L45.7488281,30.774269 L45.8003906,30.774269 L45.8003906,30.722807 L45.8519531,30.722807 L45.8519531,30.671345 L45.9035156,30.671345 L45.9035156,30.619883 L45.9550781,30.619883 L45.9550781,30.5684211 L46.0066406,30.5684211 L46.0066406,30.5169591 L46.0582031,30.5169591 L46.0582031,30.4654971 L46.1097656,30.4654971 L46.1097656,30.4140351 L46.1613281,30.4140351 L46.1613281,30.3625731 L46.2128906,30.3625731 L46.2128906,30.3111111 L46.2644531,30.3111111 L46.2644531,30.2596491 L46.3160156,30.2596491 L46.3160156,30.2081871 L46.3675781,30.2081871 L46.3675781,30.1567251 L46.4191406,30.1567251 L46.4191406,30.1052632 L46.4707031,30.1052632 L46.4707031,30.0538012 L46.5222656,30.0538012 L46.5222656,29.9766082 L46.5738281,29.9766082 L46.5738281,29.9251462 L46.6253906,29.9251462 L46.6253906,29.8736842 L46.6769531,29.8736842 L46.6769531,29.8222222 L46.7285156,29.8222222 L46.7285156,29.7707602 L46.7800781,29.7707602 L46.7800781,29.7192982 L46.8316406,29.7192982 L46.8316406,29.6678363 L46.8832031,29.6678363 L46.8832031,29.6163743 L46.9347656,29.6163743 L46.9347656,29.5649123 L46.9863281,29.5649123 L46.9863281,29.5134503 L47.0378906,29.5134503 L47.0378906,29.4619883 L47.0894531,29.4619883 L47.0894531,29.4105263 L47.1410156,29.4105263 L47.1410156,29.3590643 L47.1925781,29.3590643 L47.1925781,29.3076023 L47.2441406,29.3076023 L47.2441406,29.2561404 L47.2957031,29.2561404 L47.2957031,29.2046784 L47.3472656,29.2046784 L47.3472656,29.1532164 L47.3988281,29.1532164 L47.3988281,29.0760234 L47.4503906,29.0760234 L47.4503906,29.0245614 L47.5019531,29.0245614 L47.5019531,28.9730994 L47.5535156,28.9730994 L47.5535156,28.9216374 L47.6050781,28.9216374 L47.6050781,28.8701754 L47.6566406,28.8701754 L47.6566406,28.8187135 L47.7082031,28.8187135 L47.7082031,28.7672515 L47.7597656,28.7672515 L47.7597656,28.7157895 L47.8113281,28.7157895 L47.8113281,28.6643275 L47.8628906,28.6643275 L47.8628906,28.6128655 L47.9144531,28.6128655 L47.9144531,28.5614035 L47.9660156,28.5614035 L47.9660156,28.5099415 L48.0175781,28.5099415 L48.0175781,28.4327485 L48.0691406,28.4327485 L48.0691406,28.3812865 L48.1207031,28.3812865 L48.1207031,28.3298246 L48.1722656,28.3298246 L48.1722656,28.2783626 L48.2238281,28.2783626 L48.2238281,0.180116959 L48.4171875,0.180116959 Z" id="Shape" fill="#34376B"></path>
                    <g transform="translate(2.835938, 0.128655)" id="Shape">
                        <polygon fill="#FBB040" points="0.219140625 0.321637427 5.465625 0.321637427 5.45273437 28.1111111 0.2578125 28.0982456"></polygon>
                        <path d="M5.65898437,28.3298246 L0.038671875,28.3169591 L0,0.115789474 L5.671875,0.115789474 L5.65898437,28.3298246 Z M0.4640625,27.8923977 L5.23359375,27.9052632 L5.24648437,0.540350877 L0.425390625,0.540350877 L0.4640625,27.8923977 Z" fill="#FFFFFF"></path>
                    </g>
                    <g transform="translate(14.179688, 0.128655)" id="Shape">
                        <polygon fill="#FBB040" points="0.2578125 0.270175439 5.54296875 0.270175439 5.54296875 23.7497076 13.3289062 23.7368421 13.3289062 28.1754386 0.2578125 28.1368421"></polygon>
                        <path d="M13.5351563,28.3812865 L0.0515625,28.3555556 L0.0515625,0.0514619883 L5.74921875,0.0514619883 L5.74921875,23.5309942 L13.5351563,23.5181287 L13.5351563,28.3812865 Z M0.476953125,27.9181287 L13.1097656,27.9438596 L13.1097656,23.9426901 L5.32382812,23.9555556 L5.32382812,0.476023392 L0.476953125,0.476023392 L0.476953125,27.9181287 Z" fill="#FFFFFF"></path>
                    </g>
                    <g transform="translate(31.066406, 0.128655)" id="Shape">
                        <path d="M12.4007813,0.257309942 L17.2605469,0.257309942 L17.2605469,28.1625731 L12.3234375,28.1625731 C8.32734375,17.9859649 5.2078125,9.41754386 5.2078125,9.41754386 L5.259375,28.1239766 L0.43828125,28.1625731 L0.33515625,0.257309942 L5.54296875,0.257309942 C8.99765625,8.98011696 12.5296875,19.0538012 12.5296875,19.0538012 C12.5296875,19.0538012 12.4007813,13.3157895 12.4007813,9.86783626 L12.4007813,0.257309942 Z" fill="#FBB040"></path>
                        <path d="M0.23203125,28.3812865 L0.116015625,0.0514619883 L5.68476563,0.0514619883 L5.73632813,0.180116959 C8.44335938,7.01169591 11.2277344,14.7695906 12.2847656,17.7415205 C12.2460938,15.8374269 12.1816406,12.2736842 12.1816406,9.86783626 L12.1816406,0.0385964912 L17.4667969,0.0385964912 L17.4667969,28.3684211 L12.16875,28.3684211 L12.1171875,28.2269006 C8.99765625,20.3017544 6.39375,13.277193 5.4140625,10.6140351 L5.465625,28.3169591 L0.23203125,28.3812865 Z M12.4652344,27.9438596 L17.0414063,27.9438596 L17.0414063,0.476023392 L12.6070313,0.476023392 L12.6070313,9.88070175 C12.6070313,13.2900585 12.7359375,19.0023392 12.7359375,19.0666667 L12.7617188,20.4175439 L12.3105469,19.1438596 C12.271875,19.0409357 8.77851563,9.07017544 5.37539063,0.488888889 L0.528515625,0.488888889 L0.631640625,27.9567251 L5.02734375,27.9309942 L4.96289063,8.22105263 L5.37539063,9.36608187 C5.42695313,9.43040936 8.53359375,17.9473684 12.4652344,27.9438596 Z" fill="#FFFFFF"></path>
                    </g>
                    <polygon id="Shape" fill="#494588" points="43.2351563 28.497076 40.4636719 31.2631579 45.7746094 31.2631579 48.5332031 28.497076"></polygon>
                    <polygon id="Shape" fill="#494588" points="31.2984375 28.5099415 28.5140625 31.2631579 33.8636719 31.2631579 36.5320313 28.471345"></polygon>
                    <polygon id="Shape" fill="#494588" points="14.23125 28.471345 11.5113281 31.2631579 24.95625 31.2631579 27.7148438 28.497076"></polygon>
                    <polygon id="Shape" fill="#494588" points="2.86171875 28.4842105 0.103125 31.2631579 5.60742188 31.2631579 8.49492188 28.4584795"></polygon>
                    <g opacity="0.3" transform="translate(3.222656, 0.643275)" fill="#92465D" id="Shape">
                        <g>
                            <polygon points="0.038671875 0.0257309942 0.038671875 2.90760234 1.83046875 2.92046784 4.85976562 0.0257309942"></polygon>
                        </g>
                    </g>
                    <g opacity="0.3" transform="translate(14.566406, 0.514620)" fill="#92465D" id="Shape">
                        <g>
                            <polygon points="0.090234375 0.0900584795 0.090234375 3.03625731 1.98515625 3.03625731 4.93710938 0.0900584795"></polygon>
                        </g>
                    </g>
                    <g opacity="0.18" transform="translate(16.500000, 23.929825)" fill="#92465D" id="Shape">
                        <g>
                            <polygon points="3.1453125 0.0128654971 0.012890625 3.11345029 7.85039062 3.11345029 10.93125 0.0128654971"></polygon>
                        </g>
                    </g>
                    <g opacity="0.3" transform="translate(31.582031, 0.514620)" fill="#92465D" id="Shape">
                        <g>
                            <polygon points="0.02578125 0.0900584795 0.038671875 2.77894737 2.39765625 2.79181287 4.87265625 0.0900584795"></polygon>
                        </g>
                    </g>
                    <g opacity="0.3" transform="translate(43.570312, 0.514620)" fill="#92465D" id="Shape">
                        <g>
                            <polygon points="0.103125 0.0900584795 0.103125 3.03625731 1.71445313 3.02339181 4.5375 0.0900584795"></polygon>
                        </g>
                    </g>
                    <g opacity="0.1" transform="translate(3.222656, 3.473684)" fill="#92465D" id="Shape">
                        <g>
                            <polygon points="1.81757812 24.5473684 0.07734375 24.5473684 0.038671875 0.0771929825 1.81757812 0.0771929825"></polygon>
                        </g>
                    </g>
                    <g opacity="0.1" transform="translate(14.566406, 3.473684)" fill="#92465D" id="Shape">
                        <g>
                            <polygon points="0.090234375 24.5730994 0.090234375 0.0771929825 1.97226563 0.0771929825 1.959375 23.5695906 9.78398437 23.5695906 9.796875 24.5988304"></polygon>
                        </g>
                    </g>
                    <g opacity="0.1" transform="translate(31.582031, 3.216374)" fill="#92465D" id="Shape">
                        <g>
                            <polygon points="1.4953125 24.8432749 0.141796875 24.8561404 0.038671875 0.0771929825 2.39765625 0.0900584795 4.21523437 5.12046784 1.4953125 5.17192982"></polygon>
                        </g>
                    </g>
                    <g opacity="0.1" transform="translate(41.507813, 3.473684)" fill="#92465D" id="Shape">
                        <g>
                            <polygon points="3.7640625 24.5988304 2.02382812 24.5988304 0.07734375 19.5812865 2.33320313 17.0596491 2.165625 0.0771929825 3.7640625 0.0643274854"></polygon>
                        </g>
                    </g>
                    <g transform="translate(16.500000, 19.555556)" fill="#F57B3F" id="Shape">
                        <path d="M1.26328125,0.643274854 C1.26328125,0.977777778 0.992578125,1.26081871 0.64453125,1.26081871 C0.309375,1.26081871 0.02578125,0.990643275 0.02578125,0.643274854 C0.02578125,0.30877193 0.296484375,0.0257309942 0.64453125,0.0257309942 C0.992578125,0.0257309942 1.26328125,0.295906433 1.26328125,0.643274854"></path>
                        <path d="M1.26328125,2.95906433 C1.26328125,3.29356725 0.992578125,3.57660819 0.64453125,3.57660819 C0.309375,3.57660819 0.02578125,3.30643275 0.02578125,2.95906433 C0.02578125,2.6245614 0.296484375,2.34152047 0.64453125,2.34152047 C0.992578125,2.34152047 1.26328125,2.61169591 1.26328125,2.95906433"></path>
                        <path d="M1.26328125,5.2619883 C1.26328125,5.59649123 0.992578125,5.87953216 0.64453125,5.87953216 C0.309375,5.87953216 0.02578125,5.60935673 0.02578125,5.2619883 C0.02578125,4.92748538 0.296484375,4.64444444 0.64453125,4.64444444 C0.992578125,4.64444444 1.26328125,4.92748538 1.26328125,5.2619883"></path>
                    </g>
                    <g transform="translate(4.898438, 19.555556)" fill="#F57B3F" id="Shape">
                        <path d="M1.25039062,0.643274854 C1.25039062,0.977777778 0.9796875,1.26081871 0.631640625,1.26081871 C0.296484375,1.26081871 0.012890625,0.990643275 0.012890625,0.643274854 C0.012890625,0.30877193 0.28359375,0.0257309942 0.631640625,0.0257309942 C0.9796875,0.0257309942 1.25039062,0.295906433 1.25039062,0.643274854"></path>
                        <path d="M1.25039062,2.95906433 C1.25039062,3.29356725 0.9796875,3.57660819 0.631640625,3.57660819 C0.296484375,3.57660819 0.012890625,3.30643275 0.012890625,2.95906433 C0.012890625,2.6245614 0.28359375,2.34152047 0.631640625,2.34152047 C0.9796875,2.34152047 1.25039062,2.61169591 1.25039062,2.95906433"></path>
                        <path d="M1.25039062,5.2619883 C1.25039062,5.59649123 0.9796875,5.87953216 0.631640625,5.87953216 C0.296484375,5.87953216 0.012890625,5.60935673 0.012890625,5.2619883 C0.012890625,4.92748538 0.28359375,4.64444444 0.631640625,4.64444444 C0.9796875,4.64444444 1.25039062,4.92748538 1.25039062,5.2619883"></path>
                    </g>
                    <g transform="translate(33.386719, 19.555556)" fill="#F57B3F" id="Shape">
                        <path d="M1.2890625,0.643274854 C1.2890625,0.977777778 1.01835938,1.26081871 0.6703125,1.26081871 C0.33515625,1.26081871 0.0515625,0.990643275 0.0515625,0.643274854 C0.0515625,0.30877193 0.322265625,0.0257309942 0.6703125,0.0257309942 C1.01835938,0.0257309942 1.2890625,0.295906433 1.2890625,0.643274854"></path>
                        <path d="M1.2890625,2.95906433 C1.2890625,3.29356725 1.01835938,3.57660819 0.6703125,3.57660819 C0.33515625,3.57660819 0.0515625,3.30643275 0.0515625,2.95906433 C0.0515625,2.6245614 0.322265625,2.34152047 0.6703125,2.34152047 C1.01835938,2.34152047 1.2890625,2.61169591 1.2890625,2.95906433"></path>
                        <path d="M1.2890625,5.2619883 C1.2890625,5.59649123 1.01835938,5.87953216 0.6703125,5.87953216 C0.33515625,5.87953216 0.0515625,5.60935673 0.0515625,5.2619883 C0.0515625,4.92748538 0.322265625,4.64444444 0.6703125,4.64444444 C1.01835938,4.64444444 1.2890625,4.92748538 1.2890625,5.2619883"></path>
                    </g>
                    <g transform="translate(45.246094, 19.555556)" fill="#F57B3F" id="Shape">
                        <path d="M1.35351562,0.643274854 C1.35351562,0.977777778 1.0828125,1.26081871 0.734765625,1.26081871 C0.399609375,1.26081871 0.116015625,0.990643275 0.116015625,0.643274854 C0.116015625,0.30877193 0.38671875,0.0257309942 0.734765625,0.0257309942 C1.0828125,0.0257309942 1.35351562,0.295906433 1.35351562,0.643274854"></path>
                        <path d="M1.35351562,2.95906433 C1.35351562,3.29356725 1.0828125,3.57660819 0.734765625,3.57660819 C0.399609375,3.57660819 0.116015625,3.30643275 0.116015625,2.95906433 C0.116015625,2.6245614 0.38671875,2.34152047 0.734765625,2.34152047 C1.0828125,2.34152047 1.35351562,2.61169591 1.35351562,2.95906433"></path>
                        <path d="M1.35351562,5.2619883 C1.35351562,5.59649123 1.0828125,5.87953216 0.734765625,5.87953216 C0.399609375,5.87953216 0.116015625,5.60935673 0.116015625,5.2619883 C0.116015625,4.92748538 0.38671875,4.64444444 0.734765625,4.64444444 C1.0828125,4.64444444 1.35351562,4.92748538 1.35351562,5.2619883"></path>
                    </g>
                </g>
            </g>
        </g>
    </g>
</svg>