<?xml version="1.0" encoding="UTF-8"?>
<svg width="187px" height="50px" viewBox="0 0 187 50" version="1.1" xmlns="http://www.w3.org/2000/svg" xmlns:xlink="http://www.w3.org/1999/xlink">
    <!-- Generator: Sketch 48.2 (47327) - http://www.bohemiancoding.com/sketch -->
    <title>Download Tag</title>
    <desc>Created with Sketch.</desc>
    <defs></defs>
    <g id="ILN---Website" stroke="none" stroke-width="1" fill="none" fill-rule="evenodd">
        <g id="Download-Tag">
            <g id="RED-PLAYSTORE-TAG">
                <g id="DOWNLOAD-TAG-Copy" transform="translate(93.500000, 25.000000) scale(-1, 1) translate(-93.500000, -25.000000) " fill="#EF463D">
                    <polygon id="TAG" points="0 0 0 49.6753247 187.000218 49.6753247 183.440785 42.2065239 187.000218 32.7922078 183.440785 24.8376623 187.000218 15.5831473 183.440785 8.11688312 187.000218 0"></polygon>
                </g>
                <g id="Google-playstore" transform="translate(34.000000, 13.000000)" fill-rule="nonzero">
                    <path d="M3,0 C4.71724138,0.970666667 6.44482759,1.90933333 8.14137931,2.90133333 C11.9586207,5.13066667 15.7551724,7.392 19.5724138,9.632 C20.4724138,10.1653333 20.9896552,10.944 20.9896552,12 C20.9896552,13.0666667 20.4724138,13.8346667 19.5724138,14.368 C14.3793103,17.4186667 9.20689655,20.48 4.02413793,23.5413333 C2.04827586,24.704 0,23.4773333 0,21.12 C0,15.1466667 0,9.17333333 0,3.2 C0,1.33333333 0.486206897,0.618666667 2.17241379,0 C2.45172414,0 2.72068966,0 3,0 Z M9.69310345,12.0106667 C9.57931034,11.84 9.47586207,11.6906667 9.38275862,11.552 C7.15862069,8.352 4.94482759,5.17333333 2.72068966,1.984 C2.41034483,1.54666667 2.13103448,1.51466667 1.81034483,1.96266667 C1.65517241,2.176 1.56206897,2.47466667 1.56206897,2.74133333 C1.54137931,3.94666667 1.55172414,5.152 1.55172414,6.35733333 C1.55172414,11.2853333 1.55172414,16.2026667 1.55172414,21.1306667 C1.55172414,21.5893333 1.62413793,21.9733333 2.01724138,22.24 C2.26551724,22.4106667 2.47241379,22.4426667 2.65862069,22.1333333 C2.87586207,21.7706667 3.13448276,21.44 3.37241379,21.088 C5.47241379,18.0693333 7.57241379,15.0613333 9.69310345,12.0106667 Z M11.5965517,12 C12.4655172,13.248 13.3137931,14.4746667 14.1827586,15.712 C15.8068966,14.7626667 17.3896552,13.8453333 18.9517241,12.8853333 C19.6862069,12.4266667 19.6137931,11.4986667 18.837931,11.0293333 C17.8862069,10.4533333 16.9241379,9.89866667 15.9724138,9.344 C15.3827586,8.992 14.7827586,8.65066667 14.1827586,8.29866667 C13.3034483,9.54666667 12.4655172,10.752 11.5965517,12 Z M12.837931,7.488 C10.4068966,6.05866667 7.99655172,4.64 5.59655172,3.22133333 C5.57586207,3.24266667 5.55517241,3.27466667 5.54482759,3.296 C7.23103448,5.71733333 8.92758621,8.14933333 10.6551724,10.624 C11.4,9.55733333 12.1034483,8.544 12.837931,7.488 Z M5.54482759,20.6933333 C5.56551724,20.7146667 5.59655172,20.736 5.61724138,20.7573333 C8.01724138,19.3386667 10.4172414,17.9306667 12.837931,16.5013333 C12.1034483,15.4453333 11.4,14.432 10.6448276,13.3546667 C8.91724138,15.8506667 7.23103448,18.272 5.54482759,20.6933333 Z" id="Shape" fill="#FFFFFF"></path>
                    <path d="M9.69310345,12.0106667 C7.57241379,15.0613333 5.47241379,18.08 3.37241379,21.088 C3.13448276,21.4293333 2.87586207,21.7706667 2.65862069,22.1333333 C2.47241379,22.4533333 2.26551724,22.4106667 2.01724138,22.24 C1.62413793,21.9733333 1.55172414,21.5786667 1.55172414,21.1306667 C1.56206897,16.2026667 1.55172414,11.2853333 1.55172414,6.35733333 C1.55172414,5.152 1.54137931,3.936 1.56206897,2.73066667 C1.57241379,2.464 1.66551724,2.16533333 1.81034483,1.952 C2.13103448,1.504 2.41034483,1.536 2.72068966,1.97333333 C4.93448276,5.16266667 7.15862069,8.352 9.37241379,11.5413333 C9.4862069,11.6906667 9.57931034,11.8293333 9.69310345,12.0106667 Z" id="Shape" fill="#EF463D"></path>
                    <path d="M11.5965517,12 C12.4655172,10.752 13.3137931,9.54666667 14.1827586,8.288 C14.7931034,8.64 15.3827586,8.992 15.9724138,9.33333333 C16.9241379,9.89866667 17.8862069,10.4533333 18.837931,11.0186667 C19.6137931,11.488 19.6965517,12.416 18.9517241,12.8746667 C17.3896552,13.8346667 15.7965517,14.7413333 14.1827586,15.7013333 C13.3137931,14.4746667 12.4655172,13.248 11.5965517,12 Z" id="Shape" fill="#EF463D"></path>
                    <path d="M12.837931,7.488 C12.1034483,8.53333333 11.4,9.55733333 10.6448276,10.6346667 C8.91724138,8.16 7.23103448,5.728 5.53448276,3.30666667 C5.55517241,3.28533333 5.57586207,3.25333333 5.5862069,3.232 C7.99655172,4.64 10.4068966,6.05866667 12.837931,7.488 Z" id="Shape" fill="#EF463D"></path>
                    <path d="M5.54482759,20.6933333 C7.23103448,18.272 8.92758621,15.84 10.6551724,13.3653333 C11.4,14.4426667 12.1137931,15.456 12.8482759,16.512 C10.4275862,17.9413333 8.02758621,19.36 5.62758621,20.768 C5.5862069,20.7466667 5.56551724,20.7253333 5.54482759,20.6933333 Z" id="Shape" fill="#EF463D"></path>
                </g>
                <text id="DOWNLOAD-ON" font-family="Lato-Regular, Lato" font-size="7.92" font-weight="normal" line-spacing="14.256" letter-spacing="0.494999987" fill="#FFFFFF">
                    <tspan x="67.7047619" y="15.4833333">DOWNLOAD ON</tspan>
                </text>
                <text id="GOOGLE-PLAY" font-family="Khand-Medium, Khand" font-size="17.424" font-weight="400" line-spacing="22.176" letter-spacing="1.08899994" fill="#FFFFFF">
                    <tspan x="67.7047619" y="39.5833333">GOOGLE PLAY</tspan>
                </text>
            </g>
        </g>
    </g>
</svg>