<?xml version="1.0" encoding="UTF-8"?>
<svg width="20px" height="17px" viewBox="0 0 20 17" version="1.1" xmlns="http://www.w3.org/2000/svg" xmlns:xlink="http://www.w3.org/1999/xlink">
    <!-- Generator: Sketch 48.2 (47327) - http://www.bohemiancoding.com/sketch -->
    <title>Twitter</title>
    <desc>Created with Sketch.</desc>
    <defs></defs>
    <g id="ILN---Website" stroke="none" stroke-width="1" fill="none" fill-rule="evenodd">
        <g id="Twitter" fill="#FFFFFF" fill-rule="nonzero">
            <g id="Group-9-Copy-2">
                <path d="M19.4332386,0.661927711 C19.109375,1.63253012 18.5381155,2.3513253 17.7464489,2.9053012 C18.5066288,2.83204819 19.2308239,2.61228916 19.9325284,2.3146988 C19.9460227,2.33301205 19.959517,2.3513253 19.9730114,2.36506024 C19.6491477,2.74963855 19.3387784,3.15253012 18.9924242,3.51879518 C18.7090436,3.81638554 18.3716856,4.06819277 18.0658144,4.34746988 C18.0118371,4.39783133 17.9668561,4.4939759 17.9668561,4.56722892 C18.0208333,7.63012048 17.071733,10.3313253 15.1600379,12.6845783 C13.8555871,14.2915663 12.2182765,15.426988 10.2750947,16.1 C8.88967803,16.5807229 7.4592803,16.7684337 5.99289773,16.713494 C4.48153409,16.6585542 3.03764205,16.319759 1.6657197,15.6787952 C1.19341856,15.4590361 0.748106061,15.1843373 0.293797348,14.9325301 C0.28030303,14.9279518 0.275804924,14.9096386 0.244318182,14.873012 C1.9625947,15.0378313 3.56392045,14.7310843 5.05729167,13.906988 C5.43963068,13.6963855 5.79498106,13.44 6.15482955,13.1836145 C4.31510417,13.0050602 3.078125,12.0573494 2.38991477,10.2809639 C3.01964962,10.3862651 3.5999053,10.3725301 4.1936553,10.2077108 C1.79166667,9.62168675 0.896543561,7.41493976 1.00449811,6.1146988 C1.55776515,6.40313253 2.13352273,6.58626506 2.80374053,6.60915663 C1.91761364,5.95445783 1.34635417,5.13036145 1.11695076,4.08192771 C0.892045455,3.0426506 1.04048295,2.05373494 1.56226326,1.11060241 C3.76183712,3.74313253 6.53267045,5.18072289 9.91974432,5.42795181 C9.89275568,5.16240964 9.86126894,4.91060241 9.84777462,4.66337349 C9.79829545,3.73855422 10.032197,2.89156627 10.5539773,2.14072289 C11.3141572,1.04192771 12.3622159,0.437590361 13.680161,0.359759036 C14.8316761,0.295662651 15.8392519,0.675662651 16.6803977,1.4860241 C16.8063447,1.60963855 16.9142992,1.64626506 17.0897254,1.60506024 C17.8274148,1.42192771 18.5381155,1.16096386 19.2038352,0.780963855 C19.2623106,0.748915663 19.3252841,0.71686747 19.4332386,0.661927711 Z" id="Shape"></path>
            </g>
        </g>
    </g>
</svg>